<?xml version="1.0" standalone="no"?>
<!DOCTYPE svg PUBLIC "-//W3C//DTD SVG 1.1//EN" "http://www.w3.org/Graphics/SVG/1.1/DTD/svg11.dtd" >
<svg xmlns="http://www.w3.org/2000/svg" xmlns:xlink="http://www.w3.org/1999/xlink" version="1.1">
    <metadata></metadata>
    <defs>
        <font id="noyh_blackregular" horiz-adv-x="552" >
            <font-face units-per-em="2048" ascent="1536" descent="-512" />
            <missing-glyph horiz-adv-x="407" />
            <glyph unicode="&#xfb01;" horiz-adv-x="1236" d="M31 604v182q0 19 12 31t31 12h104v64q0 183 80 285t221 102h17q99 0 172 -53q30 -18 30 -41q0 -24 -6 -39l-45 -123q-1 -1 -3.5 -4.5t-3.5 -4.5t-4 -3.5t-5 -3l-6 -1.5t-9 -1q-20 0 -28 4q-27 8 -66 8q-35 0 -46 -31.5t-11 -93.5v-64h590q17 0 29.5 -10.5t13.5 -27.5 q2 -4 2 -15v-733q0 -19 -12 -31t-31 -12h-201q-20 0 -31.5 12t-11.5 31v518h-348v-518q0 -19 -12 -31t-31 -12h-201q-20 0 -31.5 12t-11.5 31v518h-104q-19 0 -31 11.5t-12 31.5z" />
            <glyph unicode="&#xfb02;" horiz-adv-x="1263" d="M31 604v182q0 19 12 31t31 12h104v64q0 183 80 285t221 102h17q99 0 172 -53q30 -18 30 -41q0 -24 -6 -39l-45 -123q-1 -1 -3.5 -4.5t-3.5 -4.5t-4 -3.5t-5 -3l-6 -1.5t-9 -1q-20 0 -28 4q-27 8 -66 8q-35 0 -46 -31.5t-11 -93.5v-64h164q19 0 31 -12t12 -31v-182 q0 -20 -12 -31.5t-31 -11.5h-164v-518q0 -19 -12 -31t-31 -12h-201q-20 0 -31.5 12t-11.5 31v518h-104q-19 0 -31 11.5t-12 31.5zM842 43v1077q0 19 11.5 31t31.5 12h200q19 0 31 -12t12 -31v-1077q0 -19 -12 -31t-31 -12h-200q-20 0 -31.5 12t-11.5 31z" />
            <glyph horiz-adv-x="0" />
            <glyph unicode="&#xd;" horiz-adv-x="579" />
            <glyph unicode=" "  horiz-adv-x="407" />
            <glyph unicode="&#x09;" horiz-adv-x="407" />
            <glyph unicode="&#xa0;" horiz-adv-x="407" />
            <glyph unicode="!" horiz-adv-x="559" d="M133 1120q0 19 12 31t31 12h205q20 0 32.5 -12t12.5 -31l-29 -700q-1 -19 -13.5 -31t-29.5 -12h-151q-43 0 -43 43zM137 133q0 60 42 101.5t102 41.5t101.5 -41.5t41.5 -101.5t-41.5 -101.5t-101.5 -41.5t-102 41.5t-42 101.5z" />
            <glyph unicode="&#x22;" horiz-adv-x="897" d="M133 1118q0 19 12 32t31 13h191q19 0 31 -13t12 -32l-31 -354q-2 -18 -13.5 -29.5t-29.5 -11.5h-131q-20 0 -31.5 11t-11.5 30zM487 1118q0 19 12 32t31 13h191q19 0 31 -13t12 -32l-31 -354q-2 -18 -13.5 -29.5t-29.5 -11.5h-131q-20 0 -31.5 11t-11.5 30z" />
            <glyph unicode="#" horiz-adv-x="1544" d="M133 272v189q0 20 11.5 32.5t31.5 12.5h191q9 26 15.5 42.5t14.5 37t17 43.5h-133q-20 0 -31.5 12t-11.5 31v188q0 20 11.5 32.5t31.5 12.5h237l82 223q18 35 51 35h191q19 0 31 -13t12 -32l-80 -213h199l83 223q17 35 50 35h192q20 0 31.5 -13t11.5 -32l-78 -213h72 q20 0 32.5 -12.5t12.5 -32.5v-188q0 -19 -12.5 -31t-32.5 -12h-178q-9 -26 -15.5 -42.5t-14.5 -37t-17 -43.5h114q20 0 32.5 -12.5t12.5 -32.5v-189q0 -20 -12.5 -31.5t-32.5 -11.5h-217l-73 -194q-22 -35 -50 -35h-192q-19 0 -31 13t-12 32l70 184h-201l-72 -194 q-22 -35 -49 -35h-190q-20 0 -32.5 13t-12.5 32l69 184h-86q-43 0 -43 43zM653 506h201l47 123h-201z" />
            <glyph unicode="$" horiz-adv-x="1128" d="M133 139q0 15 4 21l70 129q11 22 39 22q14 0 22 -4q40 -25 115.5 -46t165.5 -21q57 0 108.5 21.5t51.5 55.5q0 28 -31.5 51.5t-81.5 43t-111 41.5t-122 54t-111 72.5t-81.5 104.5t-31.5 143q0 135 76 222.5t217 115.5v131q0 19 12 31t31 12h174q20 0 32.5 -12t12.5 -31 v-133q109 -19 219 -65q21 -16 25 -37q0 -15 -2 -23l-66 -151q-5 -10 -18.5 -19.5t-24.5 -9.5l-22 6q-157 43 -236 43q-38 0 -66 -7t-42 -17t-22.5 -22t-10.5 -20t-2 -14q0 -28 31.5 -52.5t81.5 -46.5t111 -45.5t121.5 -56.5t110.5 -73t81.5 -100.5t31.5 -133.5 q0 -116 -88 -198.5t-213 -114.5v-139q0 -19 -12.5 -31t-32.5 -12h-174q-19 0 -31 12t-12 31v133q-147 23 -276 100q-7 3 -15 16t-8 23z" />
            <glyph unicode="%" horiz-adv-x="1861" d="M133 860q0 125 91 214t216 89t216.5 -89t91.5 -214q0 -123 -92 -214t-216 -91t-215.5 91t-91.5 214zM356 860q0 -41 24.5 -68.5t59.5 -27.5t59.5 27.5t24.5 68.5q0 40 -24 63t-60 23t-60 -23t-24 -63zM487 49l586 1079q17 35 49 35h217q20 0 31.5 -13.5t11.5 -35.5 l-585 -1081q-24 -33 -58 -33h-209q-19 0 -31 13.5t-12 35.5zM1114 295q0 125 91 214t216 89t216.5 -89t91.5 -214q0 -123 -92 -214t-216 -91t-215.5 91t-91.5 214zM1337 295q0 -41 24.5 -68.5t59.5 -27.5t59.5 27.5t24.5 68.5q0 40 -24 63t-60 23t-60 -23t-24 -63z" />
            <glyph unicode="&#x26;" horiz-adv-x="1368" d="M133 362q0 72 48 163t126 143q-31 56 -40 102t-9 100q0 63 24 117.5t73 98t131 68t190 24.5q149 0 291 -84q17 -12 24 -37q0 -15 -4 -23l-65 -145q-5 -10 -17.5 -19.5t-23.5 -9.5q-16 0 -25 6q-84 41 -174 41q-44 0 -73 -11t-39.5 -29.5t-13.5 -29t-3 -20.5 q0 -36 63 -111.5t207 -222.5l168 172q14 7 19 7q10 0 22 -9q23 -22 113 -114q12 -24 12 -33q0 -20 -10 -35l-150 -172l238 -250q0 -22 -12 -35.5t-31 -13.5h-205q-27 0 -39 6.5t-30 24.5l-89 90q-73 -73 -158.5 -102t-138.5 -29q-166 0 -282.5 100.5t-116.5 271.5zM420 344 q0 -100 129 -100q52 0 106 57l-153 162q-32 -20 -57 -52.5t-25 -66.5z" />
            <glyph unicode="'" horiz-adv-x="542" d="M133 1118q0 19 12 32t31 13h191q19 0 31 -13t12 -32l-31 -354q-2 -18 -13.5 -29.5t-29.5 -11.5h-131q-20 0 -31.5 11t-11.5 30z" />
            <glyph unicode="(" horiz-adv-x="765" d="M133 543q0 222 52.5 460t156.5 441q1 17 13.5 27t31.5 10h201q19 0 31 -13t12 -36q-104 -202 -156.5 -437t-52.5 -452q0 -435 211 -844q0 -23 -12 -36t-31 -13h-201q-19 0 -31.5 10t-13.5 27q-211 412 -211 856z" />
            <glyph unicode=")" horiz-adv-x="765" d="M133 -301q211 409 211 844q0 217 -52.5 452t-156.5 437q0 23 12 36t31 13h201q19 0 31.5 -10t13.5 -27q104 -203 156.5 -441t52.5 -460q0 -444 -211 -856q-1 -17 -13.5 -27t-31.5 -10h-201q-19 0 -31 13t-12 36z" />
            <glyph unicode="*" horiz-adv-x="1118" d="M133 772q0 9 4 21l74 172q8 22 37 22q14 0 20 -4l170 -92l-12 227q0 19 11.5 32t31.5 13h180q20 0 31.5 -13t11.5 -32l-12 -227l170 92q6 4 20 4q29 0 37 -22l74 -172q4 -12 4 -21q0 -29 -27 -39l-198 -76l106 -145q6 -12 6 -27q0 -21 -16 -32l-168 -101q-12 -6 -22 -6 q-24 0 -37 23l-70 141l-70 -141q-13 -23 -36 -23q-11 0 -23 6l-168 101q-16 11 -16 32q0 15 6 27l106 145l-198 76q-27 10 -27 39z" />
            <glyph unicode="+" horiz-adv-x="983" d="M133 358v191q0 19 12 31t31 12h170v182q0 19 11.5 31t31.5 12h205q19 0 31 -12t12 -31v-182h170q19 0 31 -12t12 -31v-191q0 -20 -12 -31.5t-31 -11.5h-170v-180q0 -19 -12 -31t-31 -12h-205q-20 0 -31.5 12t-11.5 31v180h-170q-19 0 -31 11.5t-12 31.5z" />
            <glyph unicode="," horiz-adv-x="577" d="M133 -115l53 133q-49 49 -49 111q0 66 44.5 110t111.5 44q62 0 106.5 -44.5t44.5 -109.5q0 -32 -16 -68l-96 -190q-15 -27 -43 -27h-125q-31 0 -31 41z" />
            <glyph unicode="-" horiz-adv-x="942" d="M133 330v157q0 19 12 31t31 12h590q20 0 31.5 -12t11.5 -31v-157q0 -19 -11.5 -31t-31.5 -12h-590q-19 0 -31 12t-12 31z" />
            <glyph unicode="." horiz-adv-x="573" d="M133 143q0 63 45.5 108.5t108.5 45.5t108 -45.5t45 -108.5t-45 -108t-108 -45t-108.5 45t-45.5 108z" />
            <glyph unicode="/" horiz-adv-x="1112" d="M133 -190l569 1515q26 43 64 43h152q28 0 44.5 -19.5t16.5 -48.5l-567 -1511q-20 -47 -66 -47h-151q-27 0 -44.5 20t-17.5 48z" />
            <glyph unicode="0" horiz-adv-x="1204" d="M82 584q0 166 60.5 299.5t180.5 214t279 80.5t279 -80.5t180.5 -214t60.5 -299.5t-60.5 -299.5t-180.5 -214t-279 -80.5t-279 80.5t-180.5 214t-60.5 299.5zM369 578q0 -70 12.5 -128.5t39 -106.5t72 -75.5t107.5 -27.5q63 0 110 27.5t73.5 75.5t39.5 106.5t13 128.5 t-13 127t-39.5 103.5t-73.5 72.5t-110 26q-62 0 -107.5 -26t-72 -72.5t-39 -104t-12.5 -126.5z" />
            <glyph unicode="1" horiz-adv-x="808" d="M51 760v129q0 25 15.5 40.5t39.5 20.5q65 16 136.5 43t118.5 49t122.5 59.5t110.5 53.5q19 8 39 8q15 0 27.5 -10t15.5 -25v-1085q0 -19 -12 -31t-31 -12h-201q-20 0 -31.5 12t-11.5 31v723q-67 -35 -145.5 -51.5t-132.5 -16.5q-25 0 -42.5 19.5t-17.5 42.5z" />
            <glyph unicode="2" horiz-adv-x="1060" d="M113 1040q9 27 22 37q53 36 155 68.5t195 32.5q218 0 339.5 -93.5t121.5 -257.5q0 -78 -27 -146.5t-76.5 -125t-98 -99t-115 -97t-103.5 -91.5h379q19 0 31 -12t12 -31v-182q0 -20 -12 -31.5t-31 -11.5h-745q-19 0 -31 11.5t-12 31.5v104q0 56 29.5 113.5t76.5 107.5 t104 100t114 96t104 88t76.5 85t29.5 80q0 8 -1 15t-10 22t-25.5 25.5t-51 19t-82.5 8.5q-77 0 -233 -61q-9 -6 -23 -6q-12 0 -24 9.5t-17 20.5l-67 148q-4 8 -4 22z" />
            <glyph unicode="3" horiz-adv-x="1011" d="M82 150q0 14 6 22l80 133q10 10 27 10q6 0 18 -4q51 -27 122.5 -49t125.5 -22q162 0 162 159q0 60 -51.5 86.5t-122.5 26.5q-76 0 -101 -6q-13 0 -24 11.5t-11 23.5l164 346h-350q-19 0 -31 11.5t-12 31.5v190q0 19 12 31t31 12h741q16 0 28.5 -11t12.5 -28q0 -10 -4 -18 l-194 -399q198 -68 198 -306q0 -187 -113 -299t-337 -112q-87 0 -199 38t-168 93q-10 13 -10 29z" />
            <glyph unicode="4" horiz-adv-x="1079" d="M92 303v139q0 31 37 84l410 600q16 37 53 37h260q19 0 31 -12t12 -31v-602h90q19 0 31 -12t12 -31v-190q0 -20 -12 -31.5t-31 -11.5h-90v-199q0 -19 -12 -31t-31 -12h-201q-20 0 -31.5 12t-11.5 31v199h-452q-28 0 -46 16t-18 45zM455 518h153v217z" />
            <glyph unicode="5" horiz-adv-x="1021" d="M113 295q0 21 12 34t31 13h180q39 0 59 -39q38 -63 135 -63q30 0 55.5 6t49 20.5t37.5 43.5t14 69q0 55 -37.5 90t-111.5 35q-72 0 -117 -25q-32 -22 -88 -22q-31 0 -156 10q-41 13 -41 41v612q0 19 12 31t31 12h682q19 0 31 -12t12 -31v-190q0 -20 -12 -31.5t-31 -11.5 h-438v-137q68 24 143 24q176 0 292 -109.5t116 -285.5q0 -114 -62 -204.5t-161 -137.5t-213 -47q-169 0 -284 76t-140 229z" />
            <glyph unicode="6" horiz-adv-x="1091" d="M92 418q0 43 13 96.5t32 85.5l287 522q21 41 65 41h211q20 0 31.5 -13.5t11.5 -35.5l-161 -299q111 -12 205 -63t153 -139t59 -195q0 -103 -38 -186.5t-102 -135t-145 -79t-171 -27.5q-89 0 -169 27.5t-143.5 79t-101 135t-37.5 186.5zM379 408q0 -78 47.5 -122 t118.5 -44t119.5 44t48.5 122q0 64 -51.5 103.5t-116.5 39.5q-64 0 -115 -39.5t-51 -103.5z" />
            <glyph unicode="7" horiz-adv-x="997" d="M61 930v190q0 19 12 31t31 12h811q16 0 28.5 -10.5t12.5 -28.5q0 -12 -4 -18l-452 -1061q-18 -45 -66 -45h-194q-22 0 -36 14.5t-14 38.5l363 834h-449q-19 0 -31 11.5t-12 31.5z" />
            <glyph unicode="8" horiz-adv-x="1089" d="M92 348q0 75 38.5 144t109.5 110q-49 38 -79 102t-30 130q0 167 107.5 255.5t306.5 88.5t306 -88.5t107 -255.5q0 -66 -29.5 -130t-78.5 -102q71 -41 109 -110t38 -144q0 -86 -38 -155.5t-102 -113t-144.5 -66.5t-169.5 -23q-87 0 -167 23t-144 66.5t-102 113t-38 155.5z M379 356q0 -35 17.5 -59.5t45 -36t53 -16t50.5 -4.5t50.5 4.5t53 16t45 36t17.5 59.5q0 61 -51 92t-117 31q-28 0 -56 -7t-52.5 -21t-40 -39t-15.5 -56zM418 813q0 -100 127 -100t127 100q0 94 -129 94q-125 0 -125 -94z" />
            <glyph unicode="9" horiz-adv-x="1091" d="M92 750q0 103 38 186.5t102.5 135t145.5 79t171 27.5q89 0 169 -27.5t143 -79t100.5 -135t37.5 -186.5q0 -43 -13 -97t-32 -86l-288 -526q-21 -41 -66 -41h-211q-20 0 -31.5 13.5t-11.5 35.5l164 303q-111 12 -205.5 63.5t-153.5 139.5t-59 195zM379 760q0 -64 52 -106 t116 -42t115 42t51 106q0 66 -48 106.5t-118 40.5t-119 -40.5t-49 -106.5z" />
            <glyph unicode=":" horiz-adv-x="573" d="M133 143q0 63 45.5 108.5t108.5 45.5t108 -45.5t45 -108.5t-45 -108t-108 -45t-108.5 45t-45.5 108zM133 659q0 63 45.5 108.5t108.5 45.5t108 -45.5t45 -108.5t-45 -108t-108 -45t-108.5 45t-45.5 108z" />
            <glyph unicode=";" horiz-adv-x="577" d="M133 -115l53 133q-49 49 -49 111q0 66 44.5 110t111.5 44q62 0 106.5 -44.5t44.5 -109.5q0 -32 -16 -68l-96 -190q-15 -27 -43 -27h-125q-31 0 -31 41zM137 659q0 63 45.5 108.5t108.5 45.5t108 -45.5t45 -108.5t-45 -108t-108 -45t-108.5 45t-45.5 108z" />
            <glyph unicode="&#x3c;" horiz-adv-x="913" d="M133 317v261q0 22 19 32l581 293q21 0 34 -11.5t13 -31.5v-203q0 -8 -1.5 -13.5t-6 -10t-7.5 -6.5t-11 -6.5t-11 -6.5l-335 -168l352 -176q1 -1 4.5 -3t5 -2.5t4 -3t3.5 -5.5t2 -7.5t1 -10.5v-205q0 -19 -13.5 -31t-33.5 -12l-581 293q-19 13 -19 34z" />
            <glyph unicode="=" horiz-adv-x="798" d="M133 158v123q0 27 17.5 44t44.5 17h409q29 0 45.5 -16.5t16.5 -44.5v-123q0 -28 -16.5 -44t-45.5 -16h-409q-27 0 -44.5 16.5t-17.5 43.5zM133 541v123q0 27 17.5 44t44.5 17h409q29 0 45.5 -16.5t16.5 -44.5v-123q0 -28 -16.5 -44t-45.5 -16h-409q-27 0 -44.5 16.5 t-17.5 43.5z" />
            <glyph unicode="&#x3e;" horiz-adv-x="913" d="M133 33v205q0 7 1 12t3.5 8.5t4.5 5t6.5 3.5t5.5 3l352 176l-336 168q-3 2 -11 6.5t-11 6.5t-7.5 6.5t-6 10t-1.5 13.5v203q0 20 13 31.5t34 11.5l582 -293q18 -9 18 -32v-261q0 -22 -18 -34l-582 -293q-20 0 -33.5 12t-13.5 31z" />
            <glyph unicode="?" horiz-adv-x="991" d="M133 1051q8 23 25 36q51 36 137.5 63.5t179.5 27.5q78 0 145 -17.5t121.5 -53.5t85.5 -98t31 -145q0 -49 -23.5 -97t-57 -87t-67.5 -76.5t-57.5 -79.5t-23.5 -82v-28q0 -19 -12 -31t-31 -12h-201q-20 0 -31.5 12t-11.5 31v65q0 56 23.5 108.5t57 90t67.5 70t57.5 62 t23.5 52.5q0 22 -28.5 33.5t-71.5 11.5q-46 0 -107.5 -17t-93.5 -36q-9 -6 -22 -6q-10 0 -23 9.5t-18 19.5l-70 151q-4 8 -4 23zM332 143q0 63 45 108.5t108 45.5t108.5 -45.5t45.5 -108.5t-45.5 -108t-108.5 -45t-108 45t-45 108z" />
            <glyph unicode="@" horiz-adv-x="1914" d="M133 424q0 97 24 193.5t84.5 197t152 176t239 124t332.5 48.5t331 -48.5t235 -124t147.5 -176t81 -196.5t22.5 -194q0 -59 -12.5 -119.5t-41 -120t-70 -105t-105 -74t-140.5 -28.5q-52 0 -84 3t-84.5 24.5t-99.5 63.5q-85 -78 -217 -78q-62 0 -119 13.5t-108.5 43.5 t-89.5 74.5t-60.5 111t-22.5 148.5q0 176 86 282.5t234 106.5q59 0 120.5 -22.5t100.5 -73.5v53q0 20 12 32.5t31 12.5h176q20 0 31.5 -12.5t11.5 -32.5v-516q45 -10 80 -10q21 0 39 7.5t39.5 29t34 70t12.5 120.5q0 58 -15 119t-55.5 129.5t-102.5 121.5t-167 87.5 t-238 34.5t-238.5 -35t-167.5 -88.5t-103 -122.5t-55.5 -130.5t-14.5 -119.5q0 -49 2.5 -88.5t11.5 -89.5t24 -90.5t41.5 -84.5t62.5 -77.5t89.5 -65t120 -52t155.5 -32.5t195 -12q129 0 414 92q23 0 36 -13t13 -32v-147q0 -35 -39 -43q-66 -34 -194.5 -55t-214.5 -21 q-107 0 -199 8t-193 31t-181.5 60.5t-155 100.5t-124.5 146t-80 201.5t-30 263.5zM791 373q0 -90 32 -126t101 -36q73 0 109 36t36 126q0 149 -145 149q-67 0 -100 -35.5t-33 -113.5z" />
            <glyph unicode="A" horiz-adv-x="1236" d="M31 47l528 1092q26 30 59 30q34 0 60 -30l528 -1092q0 -20 -12 -33.5t-31 -13.5h-219q-27 0 -49 35l-82 176h-389l-82 -176q-22 -35 -49 -35h-219q-19 0 -31 13.5t-12 33.5zM528 449h177l-87 178z" />
            <glyph unicode="B" horiz-adv-x="1124" d="M133 43v1077q0 19 12 31t31 12h492q154 0 259 -105t105 -257q0 -146 -117 -223q117 -89 117 -218q0 -152 -105.5 -256t-258.5 -104h-492q-19 0 -31 12t-12 31zM420 270h237q36 0 62 29.5t26 65.5q0 29 -14.5 55t-36.5 26h-274v-176zM420 709h239q36 0 61 26t25 62t-25 63 t-61 27h-239v-178z" />
            <glyph unicode="C" horiz-adv-x="1181" d="M82 584q0 121 46.5 231t125.5 189.5t189.5 126.5t232.5 47q124 0 237 -44t197 -126q10 -25 10 -33q0 -19 -12 -31l-125 -110q-13 -13 -29 -13q-18 0 -39 13q-84 73 -241 73q-130 0 -217.5 -96.5t-87.5 -232.5q0 -134 91.5 -236t215.5 -102q93 0 139 12.5t125 71.5 q16 16 37 16q16 0 29 -10l98 -109q14 -14 14 -31q0 -16 -12 -32q-77 -93 -185 -130.5t-255 -37.5q-162 0 -296.5 79.5t-211 216t-76.5 298.5z" />
            <glyph unicode="D" horiz-adv-x="1175" d="M133 43v1077q0 19 12 31t31 12h389q161 0 289.5 -77.5t199 -211t70.5 -296.5t-70.5 -294.5t-199 -207.5t-289.5 -76h-389q-19 0 -31 12t-12 31zM420 270h117q131 0 216 85t85 216q0 133 -86 224.5t-215 91.5h-117v-617z" />
            <glyph unicode="E" horiz-adv-x="1064" d="M133 43v1077q0 19 12 31t31 12h744q19 0 31 -12t12 -31v-190q0 -20 -12 -31.5t-31 -11.5h-500v-176h393q19 0 31 -12t12 -31v-185q0 -20 -12 -31.5t-31 -11.5h-393v-170h500q19 0 31 -12t12 -31v-184q0 -20 -12 -31.5t-31 -11.5h-744q-19 0 -31 12t-12 31z" />
            <glyph unicode="F" horiz-adv-x="983" d="M133 43v1077q0 19 12 31t31 12h744q19 0 31 -12t12 -31v-190q0 -20 -12 -31.5t-31 -11.5h-500v-176h393q19 0 31 -12t12 -31v-185q0 -20 -12 -31.5t-31 -11.5h-393v-397q0 -19 -12 -31t-31 -12h-201q-20 0 -31.5 12t-11.5 31z" />
            <glyph unicode="G" horiz-adv-x="1282" d="M82 584q0 121 46.5 231t125.5 189.5t189.5 126.5t232.5 47q124 0 237 -44t197 -126q10 -25 10 -33q0 -19 -12 -31l-125 -110q-13 -13 -29 -13q-18 0 -39 13q-84 73 -241 73q-130 0 -217.5 -96.5t-87.5 -232.5q0 -134 91.5 -236t215.5 -102q52 0 73.5 1t53 8t61.5 23v150 h-176q-19 0 -31 12t-12 31v158q0 20 12 31.5t31 11.5h428q19 0 31 -11.5t12 -31.5v-580q0 -19 -12 -31t-31 -12h-65q-25 0 -34.5 4t-17.5 16l-28 56q-112 -86 -305 -86q-162 0 -296.5 79.5t-211 216t-76.5 298.5z" />
            <glyph unicode="H" horiz-adv-x="1200" d="M133 43v1077q0 19 11.5 31t31.5 12h201q19 0 31 -12t12 -31v-420h360v420q0 19 11.5 31t31.5 12h201q19 0 31 -12t12 -31v-1077q0 -19 -12 -31t-31 -12h-201q-20 0 -31.5 12t-11.5 31v387h-360v-387q0 -19 -12 -31t-31 -12h-201q-20 0 -31.5 12t-11.5 31z" />
            <glyph unicode="I" d="M133 43v1077q0 19 11.5 31t31.5 12h201q19 0 31 -12t12 -31v-1077q0 -19 -12 -31t-31 -12h-201q-20 0 -31.5 12t-11.5 31z" />
            <glyph unicode="J" horiz-adv-x="960" d="M23 145q0 15 10 25l88 127q18 18 37 18q14 0 24 -8q83 -67 217 -67q94 0 128 60.5t34 234.5v585q0 19 11.5 31t31.5 12h201q19 0 31 -12t12 -31v-592q0 -207 -45 -323.5t-141 -165.5t-265 -49q-215 0 -358 119q-16 16 -16 36z" />
            <glyph unicode="K" horiz-adv-x="1214" d="M133 43v1077q0 19 11.5 31t31.5 12h201q19 0 31 -12t12 -31v-344l332 352q25 21 41.5 28t56.5 7h233q22 0 36 -14.5t14 -38.5l-365 -383l416 -674q0 -24 -13.5 -38.5t-35.5 -14.5h-181q-40 0 -56.5 7t-41.5 28l-289 467l-147 -156v-303q0 -19 -12 -31t-31 -12h-201 q-20 0 -31.5 12t-11.5 31z" />
            <glyph unicode="L" horiz-adv-x="1042" d="M133 43v1077q0 19 11.5 31t31.5 12h201q19 0 31 -12t12 -31v-852h500q19 0 31 -12t12 -31v-182q0 -20 -12 -31.5t-31 -11.5h-744q-20 0 -31.5 12t-11.5 31z" />
            <glyph unicode="M" horiz-adv-x="1384" d="M133 61v1080q17 28 41 28q21 0 37 -22l459 -457q13 -16 22 -16q10 0 23 16l459 457q16 22 36 22q24 0 41 -28v-1080q0 -27 -17 -44t-44 -17h-164q-27 0 -44 17t-17 44v492l-242 -248q-18 -18 -31 -18q-12 0 -30 18l-242 248v-492q0 -27 -17 -44t-45 -17h-163 q-27 0 -44.5 17t-17.5 44z" />
            <glyph unicode="N" horiz-adv-x="1280" d="M133 43v1092q0 19 14 30t39 11l674 -435v361q0 26 17 43.5t45 17.5h163q26 0 44 -17.5t18 -43.5v-1059q0 -19 -12 -31t-31 -12h-201q-20 0 -31.5 12t-11.5 31v354l-440 289v-643q0 -19 -12 -31t-31 -12h-201q-20 0 -31.5 12t-11.5 31z" />
            <glyph unicode="O" horiz-adv-x="1343" d="M82 584q0 162 78.5 298.5t214.5 216t297 79.5t297 -79.5t214.5 -216t78.5 -298.5t-78.5 -298.5t-214.5 -216t-297 -79.5t-297 79.5t-214.5 216t-78.5 298.5zM369 578q0 -137 86.5 -237.5t214.5 -100.5q131 0 218 100.5t87 237.5q0 136 -87 232.5t-218 96.5 q-129 0 -215 -96.5t-86 -232.5z" />
            <glyph unicode="P" horiz-adv-x="1058" d="M133 43v1077q0 19 11.5 31t31.5 12h490q154 0 258 -111.5t104 -289.5t-104 -287.5t-258 -109.5h-246v-322q0 -19 -12 -31t-31 -12h-201q-20 0 -31.5 12t-11.5 31zM420 641h231q39 0 64.5 31t25.5 88t-25.5 85.5t-64.5 28.5h-231v-233z" />
            <glyph unicode="Q" horiz-adv-x="1343" d="M82 584q0 162 78.5 298.5t214.5 216t297 79.5t297 -79.5t214.5 -216t78.5 -298.5q0 -215 -135 -378.5t-339 -203.5q23 -55 66 -55q45 0 61 2q12 2 31 2q25 0 31 -19l47 -108q0 -25 -8 -35q-78 -45 -191 -45q-120 0 -193 58.5t-91 201.5q-199 45 -329 207t-130 373z M369 578q0 -137 86.5 -237.5t214.5 -100.5q131 0 218 100.5t87 237.5q0 136 -87 232.5t-218 96.5q-129 0 -215 -96.5t-86 -232.5z" />
            <glyph unicode="R" horiz-adv-x="1130" d="M133 43v1077q0 19 11.5 31t31.5 12h510q153 0 257 -108t104 -275q0 -113 -48.5 -200.5t-134.5 -135.5l195 -391q0 -24 -13.5 -38.5t-35.5 -14.5h-195q-51 0 -65 45l-154 324h-176v-326q0 -19 -12 -31t-31 -12h-201q-20 0 -31.5 12t-11.5 31zM420 641h250q36 0 60 34.5 t24 86.5q0 112 -84 112h-250v-233z" />
            <glyph unicode="S" horiz-adv-x="1040" d="M102 139q0 15 4 21l70 129q11 22 39 22q15 0 23 -4q40 -25 115 -46t165 -21q57 0 108.5 21.5t51.5 55.5q0 28 -31.5 51.5t-81.5 43t-111 41.5t-121.5 54t-110.5 72.5t-81.5 104.5t-31.5 143q0 164 110.5 257.5t312.5 93.5q87 0 189 -26.5t162 -53.5q20 -15 24 -37 q0 -15 -2 -23l-65 -151q-5 -10 -18.5 -19.5t-24.5 -9.5l-23 6q-157 43 -235 43q-38 0 -66 -7t-42.5 -17t-23 -22t-10.5 -20t-2 -14q0 -28 31.5 -52.5t81.5 -46.5t111 -45.5t122 -56.5t111 -73t81.5 -100.5t31.5 -133.5q0 -75 -41 -139.5t-104.5 -104.5t-135 -62.5 t-137.5 -22.5q-242 0 -422 110q-7 3 -15 16t-8 23z" />
            <glyph unicode="T" horiz-adv-x="958" d="M51 930v190q0 19 12 31t31 12h770q19 0 31 -12t12 -31v-190q0 -20 -12 -31.5t-31 -11.5h-241v-844q0 -19 -12 -31t-31 -12h-201q-20 0 -31.5 12t-11.5 31v844h-242q-19 0 -31 11.5t-12 31.5z" />
            <glyph unicode="U" horiz-adv-x="1261" d="M133 518v602q0 19 11.5 31t31.5 12h201q19 0 31 -12t12 -31v-612q0 -145 48.5 -206.5t162.5 -61.5t162.5 61.5t48.5 206.5v612q0 19 12 31t31 12h200q20 0 31.5 -12t11.5 -31v-602q0 -247 -127 -387.5t-372 -140.5q-243 0 -369.5 140.5t-126.5 387.5z" />
            <glyph unicode="V" horiz-adv-x="1236" d="M31 1116q0 20 12 33.5t31 13.5h219q27 0 49 -35l276 -591l277 591q22 35 49 35h219q19 0 31 -13.5t12 -33.5l-528 -1091q-27 -31 -60 -31q-32 0 -59 31z" />
            <glyph unicode="W" horiz-adv-x="1527" d="M31 1110q0 24 13.5 38.5t35.5 14.5h188q52 0 66 -45l164 -491l211 460q17 31 55 31t55 -31l211 -460l164 491q14 45 66 45h188q22 0 35.5 -14.5t13.5 -38.5l-375 -1092q-22 -22 -45 -22q-27 0 -45 22l-248 506q-12 19 -18 19q-11 0 -23 -19l-247 -506q-18 -22 -45 -22 q-23 0 -45 22z" />
            <glyph unicode="X" horiz-adv-x="1126" d="M31 53l336 535l-336 522q0 24 13.5 38.5t35.5 14.5h209q25 0 38 -10.5t27 -34.5l209 -323l209 323q14 24 27.5 34.5t38.5 10.5h209q22 0 35.5 -14.5t13.5 -38.5l-336 -522l336 -535q0 -24 -13.5 -38.5t-35.5 -14.5h-209q-25 0 -38.5 10.5t-27.5 34.5l-209 320l-209 -320 q-14 -24 -27 -34.5t-38 -10.5h-209q-22 0 -35.5 14.5t-13.5 38.5z" />
            <glyph unicode="Y" horiz-adv-x="1163" d="M31 1110q0 24 13.5 38.5t35.5 14.5h194q52 0 66 -45l242 -395l241 395q14 45 66 45h194q22 0 36 -14.5t14 -38.5l-408 -676v-391q0 -19 -12 -31t-31 -12h-201q-20 0 -31.5 12t-11.5 31v391z" />
            <glyph unicode="Z" horiz-adv-x="1013" d="M51 39q0 12 4 18l459 830h-418q-19 0 -31 11.5t-12 31.5v190q0 19 12 31t31 12h826q16 0 28.5 -10.5t12.5 -28.5q0 -10 -5 -18l-460 -840h411q19 0 31 -12t12 -31v-178q0 -20 -12 -31.5t-31 -13.5h-817q-16 0 -28.5 10.5t-12.5 28.5z" />
            <glyph unicode="[" horiz-adv-x="759" d="M133 -289v1690q0 27 17.5 44t44.5 17h370q29 0 45.5 -16.5t16.5 -44.5v-139q0 -28 -16.5 -45t-45.5 -17h-157v-1288h157q29 0 45.5 -18t16.5 -46v-137q0 -28 -16.5 -44.5t-45.5 -16.5h-370q-27 0 -44.5 17t-17.5 44z" />
            <glyph unicode="\" horiz-adv-x="1112" d="M133 1300q0 29 17 48.5t45 19.5h151q38 0 64 -43l569 -1515q0 -29 -17 -48.5t-44 -19.5h-152q-46 0 -66 47z" />
            <glyph unicode="]" horiz-adv-x="759" d="M133 -152q0 28 16.5 46t45.5 18h157v1288h-157q-29 0 -45.5 17t-16.5 45v139q0 28 16.5 44.5t45.5 16.5h370q27 0 44.5 -17t17.5 -44v-1690q0 -27 -17.5 -44t-44.5 -17h-370q-29 0 -45.5 16.5t-16.5 44.5v137z" />
            <glyph unicode="^" horiz-adv-x="942" d="M133 782l178 344q21 37 60 37h200q39 0 60 -37l178 -344q0 -34 -16.5 -53.5t-44.5 -19.5h-152q-22 0 -41 11.5t-25 29.5l-59 127l-59 -127q-6 -18 -25 -29.5t-41 -11.5h-151q-28 0 -45 20t-17 53z" />
            <glyph unicode="_" horiz-adv-x="942" d="M133 -53q0 19 12 31t31 12h604q29 0 29 -43v-156q0 -20 -12 -31.5t-31 -11.5h-590q-19 0 -31 11.5t-12 31.5v156z" />
            <glyph unicode="`" horiz-adv-x="700" d="M133 1114q0 22 12 35.5t31 13.5h221q17 0 29 -12t14 -29l127 -350q0 -19 -12 -31t-31 -12h-127q-14 0 -29.5 9.5t-23.5 21.5z" />
            <glyph unicode="a" horiz-adv-x="911" d="M72 262q0 115 72.5 170t195.5 55q108 0 162 -30q-13 61 -42 81.5t-89 20.5q-82 0 -127 -12q-12 -2 -25 -2q-39 0 -53 28l-45 127q-4 16 -4 31q0 31 24 47q85 33 140.5 42t124.5 9q194 0 288 -98t94 -276v-412q0 -19 -12 -31t-31 -12h-122q-27 0 -39 8t-21 33l-10 43 q-31 -40 -82.5 -63.5t-78.5 -27t-48 -3.5q-24 0 -51 4t-69 20.5t-73.5 43.5t-55 80t-23.5 124zM336 272q0 -53 90 -53q44 0 76 27v49q-29 29 -76 29q-90 0 -90 -52z" />
            <glyph unicode="b" horiz-adv-x="1034" d="M133 43v1077q0 19 11.5 31t31.5 12h201q19 0 31 -12t12 -31v-346q68 55 194 55q142 0 250.5 -123t108.5 -292q0 -113 -49.5 -210t-137.5 -155.5t-194 -58.5q-67 0 -122 18.5t-101 75.5l-11 -43q-9 -25 -21 -33t-38 -8h-123q-19 0 -31 12t-12 31zM420 412q0 -76 39 -124 t98 -48q53 0 91 49t38 123q0 66 -38.5 106.5t-92.5 40.5q-58 0 -96.5 -40.5t-38.5 -106.5z" />
            <glyph unicode="c" horiz-adv-x="856" d="M61 414q0 171 126.5 293t301.5 122q82 0 161.5 -27.5t135.5 -80.5q13 -20 13 -41q0 -24 -19 -43l-84 -107q-17 -14 -37 -14h-12l-26 10q-68 33 -134 33q-59 0 -99 -40t-40 -107q0 -70 45 -121t111 -51q64 0 114 34q30 19 50 19q23 0 37 -17l79 -83q21 -26 21 -46 q0 -25 -12 -43q-62 -66 -137.5 -90t-166.5 -24q-174 0 -301 126.5t-127 297.5z" />
            <glyph unicode="d" horiz-adv-x="1034" d="M61 414q0 169 108.5 292t250.5 123q126 0 194 -55v346q0 19 12 31t31 12h201q20 0 31.5 -12t11.5 -31v-1077q0 -19 -12 -31t-31 -12h-123q-26 0 -38 8t-21 33l-10 43q-46 -57 -101 -75.5t-123 -18.5q-106 0 -194 58.5t-137.5 155.5t-49.5 210zM348 412q0 -74 38 -123 t91 -49q59 0 98 48t39 124q0 66 -38.5 106.5t-96.5 40.5q-54 0 -92.5 -40.5t-38.5 -106.5z" />
            <glyph unicode="e" horiz-adv-x="919" d="M61 418q0 182 100 296.5t300 114.5q176 0 286.5 -101.5t110.5 -291.5v-67q0 -19 -12 -31t-31 -12h-461q16 -101 162 -101q119 0 195 35q4 2 10 2q16 0 27 -14l55 -92q10 -13 10 -29q0 -22 -10 -35q-38 -53 -117.5 -77.5t-169.5 -24.5q-71 0 -135.5 14t-123.5 46.5 t-102 81t-68.5 122t-25.5 164.5zM352 483h219q-13 92 -106 92q-98 0 -113 -92z" />
            <glyph unicode="f" horiz-adv-x="708" d="M31 604v182q0 19 12 31t31 12h104v64q0 183 80 285t221 102h17q99 0 172 -53q30 -18 30 -41q0 -24 -6 -39l-45 -123q-1 -1 -3.5 -4.5t-3.5 -4.5t-4 -3.5t-5 -3l-6 -1.5t-9 -1q-20 0 -28 4q-27 8 -66 8q-35 0 -46 -31.5t-11 -93.5v-64h164q19 0 31 -12t12 -31v-182 q0 -20 -12 -31.5t-31 -11.5h-164v-518q0 -19 -12 -31t-31 -12h-201q-20 0 -31.5 12t-11.5 31v518h-104q-19 0 -31 11.5t-12 31.5z" />
            <glyph unicode="g" horiz-adv-x="1034" d="M61 414q0 173 112.5 294t279.5 121q140 0 237 -69l4 18q9 25 21 33t39 8h104q19 0 31 -12t12 -31v-780q0 -105 -34.5 -185.5t-92.5 -126t-124.5 -68t-139.5 -22.5q-114 0 -193.5 25.5t-148.5 85.5q-16 16 -16 37q0 15 6 27l71 122q15 15 31 15q25 0 33 -8q67 -54 196 -54 q71 0 98 30t27 89v62q-63 -35 -174 -35q-160 0 -269.5 125.5t-109.5 298.5zM348 412q0 -80 37 -126t94 -46q58 0 96.5 46t38.5 126q0 66 -39.5 106.5t-95.5 40.5q-57 0 -94 -40.5t-37 -106.5z" />
            <glyph unicode="h" horiz-adv-x="1017" d="M133 43v1077q0 19 12 31t31 12h201q20 0 31.5 -12t11.5 -31v-336q60 45 160 45q85 0 149.5 -30t102 -82.5t55.5 -117t18 -140.5v-416q0 -19 -11.5 -31t-31.5 -12h-200q-19 0 -31.5 12t-12.5 31v387q0 32 -2.5 51t-12.5 39t-32 29.5t-57 9.5q-48 0 -71 -36t-23 -93v-387 q0 -19 -11.5 -31t-31.5 -12h-201q-19 0 -31 12t-12 31z" />
            <glyph unicode="i" horiz-adv-x="528" d="M88 1067q0 66 47 113t113 47t113 -47t47 -113t-47 -113t-113 -47t-113 47t-47 113zM104 43v733q0 19 11.5 31t31.5 12h201q19 0 31 -12t12 -31v-733q0 -19 -12 -31t-31 -12h-201q-20 0 -31.5 12t-11.5 31z" />
            <glyph unicode="j" horiz-adv-x="528" d="M-115 -299q0 11 4 23l43 124q11 15 27 15q56 -19 102 -19q33 0 42.5 24.5t9.5 108.5v799q0 19 11.5 31t31.5 12h200q19 0 31 -12t12 -31v-807q0 -112 -18.5 -186t-58.5 -115.5t-93.5 -57.5t-132.5 -16q-20 0 -52 6t-69 17.5t-63.5 33.5t-26.5 50zM96 1067q0 66 47 113 t113 47t113 -47t47 -113t-47 -113t-113 -47t-113 47t-47 113z" />
            <glyph unicode="k" horiz-adv-x="950" d="M133 43v1077q0 19 11.5 31t31.5 12h201q19 0 31 -12t12 -31v-542l155 202q31 39 66 39h236q20 0 31.5 -13.5t11.5 -35.5l-267 -354l265 -367q0 -22 -12 -35.5t-32 -13.5h-233q-22 0 -41 11t-25 26l-155 219v-213q0 -19 -12 -31t-31 -12h-201q-20 0 -31.5 12t-11.5 31z " />
            <glyph unicode="l" d="M133 43v1077q0 19 11.5 31t31.5 12h201q19 0 31 -12t12 -31v-1077q0 -19 -12 -31t-31 -12h-201q-20 0 -31.5 12t-11.5 31z" />
            <glyph unicode="m" horiz-adv-x="1378" d="M133 43v733q0 19 11.5 31t31.5 12h143q19 0 31 -12t12 -31v-35q60 88 191 88q51 0 102.5 -22.5t87.5 -69.5q78 92 226 92q143 0 220 -98.5t77 -255.5v-432q0 -19 -12 -31t-31 -12h-201q-20 0 -31.5 12t-11.5 31v426q0 46 -22 68t-52 22q-22 0 -47 -14.5t-29 -34.5 q2 -16 2 -43v-424q0 -19 -12 -31t-31 -12h-174q-20 0 -31.5 12t-11.5 31v399q0 51 -22 84t-51 33q-36 0 -57 -32t-21 -85v-399q0 -19 -12 -31t-31 -12h-201q-20 0 -31.5 12t-11.5 31z" />
            <glyph unicode="n" horiz-adv-x="1017" d="M133 43v733q0 19 12 31t31 12h105q26 0 38 -8t21 -33l10 -43q36 52 100 73t130 21q85 0 149.5 -30t102 -82.5t55.5 -117t18 -140.5v-416q0 -19 -11.5 -31t-31.5 -12h-200q-19 0 -31.5 12t-12.5 31v387q0 32 -2.5 51t-12.5 39t-32 29.5t-57 9.5q-48 0 -71 -36t-23 -93 v-387q0 -19 -11.5 -31t-31.5 -12h-201q-19 0 -31 12t-12 31z" />
            <glyph unicode="o" horiz-adv-x="976" d="M61 401q0 112 58.5 211t157 158t210.5 59q113 0 212 -59t157.5 -157.5t58.5 -211.5q0 -169 -127 -290t-301 -121q-173 0 -299.5 121t-126.5 290zM348 399q0 -66 40 -112.5t97 -46.5q60 0 102 46.5t42 112.5q0 68 -42 114t-102 46q-57 0 -97 -46t-40 -114z" />
            <glyph unicode="p" horiz-adv-x="1034" d="M133 -307v1083q0 19 12 31t31 12h105q26 0 38 -8t21 -33l4 -18q97 69 238 69q167 0 279 -121t112 -294t-109.5 -298.5t-269.5 -125.5q-111 0 -174 35v-332q0 -19 -11.5 -31t-31.5 -12h-201q-19 0 -31 12t-12 31zM420 412q0 -80 38.5 -126t96.5 -46q57 0 94 46t37 126 q0 66 -37 106.5t-94 40.5q-56 0 -95.5 -40.5t-39.5 -106.5z" />
            <glyph unicode="q" horiz-adv-x="1034" d="M61 414q0 173 112.5 294t279.5 121q140 0 237 -69l4 18q9 25 21 33t39 8h104q19 0 31 -12t12 -31v-1083q0 -19 -12 -31t-31 -12h-201q-20 0 -31.5 12t-11.5 31v332q-63 -35 -174 -35q-160 0 -269.5 125.5t-109.5 298.5zM348 412q0 -80 37 -126t94 -46q58 0 96.5 46 t38.5 126q0 66 -39.5 106.5t-95.5 40.5q-57 0 -94 -40.5t-37 -106.5z" />
            <glyph unicode="r" horiz-adv-x="677" d="M133 43v733q0 19 11.5 31t31.5 12h143q19 0 31 -12t12 -31v-35q61 79 185 88h78q19 0 31 -12t12 -31v-182q0 -20 -12 -31.5t-31 -11.5h-72q-71 0 -102 -35.5t-31 -91.5v-391q0 -19 -12 -31t-31 -12h-201q-20 0 -31.5 12t-11.5 31z" />
            <glyph unicode="s" horiz-adv-x="837" d="M82 111q0 10 41 143q12 27 35 27q8 0 18 -5q23 -14 95 -32.5t135 -18.5q71 0 71 27q0 19 -40.5 37t-97.5 38t-114.5 47.5t-98 78t-40.5 116.5q0 127 99 193.5t251 66.5q64 0 133.5 -16.5t112.5 -34.5q14 -7 25 -26q0 -17 -2 -21l-35 -145q-3 -12 -11.5 -17.5t-31.5 -5.5 q-3 0 -26.5 5.5t-59 11.5t-68.5 6q-59 0 -77.5 -5.5t-18.5 -25.5q0 -17 40 -36.5t96.5 -42.5t113.5 -52t97 -74.5t40 -99.5q0 -61 -21.5 -108t-56 -75t-82.5 -46t-95.5 -24.5t-100.5 -6.5q-173 0 -306 86q-20 15 -20 35z" />
            <glyph unicode="t" horiz-adv-x="735" d="M41 604v182q0 19 12 31t31 12h104v291q0 19 11.5 31t31.5 12h201q19 0 31 -12t12 -31v-291h141q19 0 31 -12t12 -31v-182q0 -20 -12 -31.5t-31 -11.5h-141v-188q0 -68 13 -100.5t53 -32.5q12 0 18 0.5t7.5 1t7 1t14.5 1.5q6 2 16 2q12 0 25 -9.5t16 -21.5l25 -143 q2 -4 2 -17t-12.5 -25t-20.5 -14q-64 -26 -158 -26q-72 0 -123.5 16.5t-91 56t-59 110t-19.5 173.5v215h-104q-19 0 -31 11.5t-12 31.5z" />
            <glyph unicode="u" horiz-adv-x="1017" d="M113 360v416q0 19 11.5 31t31.5 12h200q19 0 31 -12t12 -31v-407q0 -31 3 -50.5t12.5 -39.5t32 -29.5t57.5 -9.5q48 0 71 36t23 93v407q0 19 11.5 31t31.5 12h201q19 0 31 -12t12 -31v-733q0 -19 -12 -31t-31 -12h-105q-26 0 -38 8t-21 33l-10 43q-64 -94 -215 -94 q-86 0 -152.5 30t-106.5 82t-60.5 117.5t-20.5 140.5z" />
            <glyph unicode="v" horiz-adv-x="901" d="M20 766q0 24 14 38.5t36 14.5h190q48 0 66 -45l125 -291l124 291q18 45 66 45h190q22 0 36 -14.5t14 -38.5l-371 -746q-30 -30 -59 -30q-30 0 -60 30z" />
            <glyph unicode="w" horiz-adv-x="1220" d="M41 766q0 24 13.5 38.5t35.5 14.5h176q52 0 66 -45l94 -262l127 285q14 32 57 32q44 0 58 -32l127 -285l94 262q14 45 65 45h176q22 0 36 -14.5t14 -38.5l-271 -741q-33 -29 -59 -29q-29 0 -62 33l-178 333l-178 -333q-33 -33 -61 -33q-27 0 -60 29z" />
            <glyph unicode="x" horiz-adv-x="884" d="M41 53l207 340l-207 373q0 24 13.5 38.5t35.5 14.5h195q51 0 65 -45l92 -180l93 180q14 45 65 45h195q22 0 35.5 -14.5t13.5 -38.5l-207 -373l207 -340q0 -24 -13.5 -38.5t-35.5 -14.5h-195q-51 0 -65 45l-93 180l-92 -180q-14 -45 -65 -45h-195q-22 0 -35.5 14.5 t-13.5 38.5z" />
            <glyph unicode="y" horiz-adv-x="907" d="M51 766q0 24 13.5 38.5t35.5 14.5h191q45 0 63 -45l115 -235l113 235q18 45 63 45h193q22 0 35.5 -14.5t13.5 -38.5l-512 -1071q-18 -45 -66 -45h-194q-22 0 -35.5 14.5t-13.5 38.5l243 518z" />
            <glyph unicode="z" horiz-adv-x="870" d="M72 596v180q0 19 12 31t31 12h641q16 0 28.5 -10.5t12.5 -28.5q0 -12 -4 -18l-271 -498h234q19 0 31 -12t12 -31v-178q0 -20 -12 -31.5t-31 -11.5h-637q-16 0 -28.5 10.5t-12.5 28.5q0 12 4 18l274 496h-241q-19 0 -31 11.5t-12 31.5z" />
            <glyph unicode="{" horiz-adv-x="878" d="M133 479v158q0 43 43 43q44 0 76.5 32t32.5 76v318q0 102 20.5 173t61.5 110t93 56t124 17h118q20 0 31.5 -12t11.5 -31v-176q0 -19 -11.5 -31t-31.5 -12h-90q-37 0 -46 -28.5t-9 -133.5v-250q0 -136 -86 -231q86 -100 86 -233v-250q0 -105 9 -133.5t46 -28.5h90 q20 0 31.5 -12t11.5 -31v-176q0 -19 -11.5 -31t-31.5 -12h-118q-72 0 -124 17t-93 56t-61.5 110t-20.5 173v318q0 44 -32.5 76t-76.5 32q-43 0 -43 47z" />
            <glyph unicode="|" horiz-adv-x="542" d="M133 -309v1728q0 19 12 31t31 12h189q20 0 32.5 -12t12.5 -31v-1728q0 -19 -12.5 -31t-32.5 -12h-189q-19 0 -31 12t-12 31z" />
            <glyph unicode="}" horiz-adv-x="878" d="M133 -131q0 19 11.5 31t31.5 12h90q37 0 46.5 29t9.5 133v250q0 133 86 233q-86 95 -86 231v250q0 104 -9.5 133t-46.5 29h-90q-20 0 -31.5 12t-11.5 31v176q0 19 11.5 31t31.5 12h119q72 0 124 -17t93 -56t61.5 -110t20.5 -173v-318q0 -44 32 -76t76 -32q43 0 43 -43 v-158q0 -47 -43 -47q-44 0 -76 -32t-32 -76v-318q0 -102 -20.5 -173t-61.5 -110t-93 -56t-124 -17h-119q-20 0 -31.5 12t-11.5 31v176z" />
            <glyph unicode="~" horiz-adv-x="894" d="M133 426q0 22 19 35q95 74 178 74q49 0 119.5 -34t101.5 -34q54 0 98 33q12 6 21 6q18 0 39 -21l53 -139q0 -34 -21 -45q-94 -80 -192 -80q-40 0 -109.5 34t-109.5 34q-50 0 -84 -29q-12 -4 -23 -4q-27 0 -37 20l-49 127q-4 16 -4 23z" />
            <glyph unicode="&#xa1;" horiz-adv-x="559" d="M133 33l27 700q0 43 43 43h151q17 0 29.5 -12t13.5 -31l29 -700q0 -19 -12.5 -31t-32.5 -12h-205q-19 0 -31 12t-12 31zM137 1020q0 60 42 101.5t102 41.5t101.5 -41.5t41.5 -101.5t-41.5 -101.5t-101.5 -41.5t-102 41.5t-42 101.5z" />
            <glyph unicode="&#xa2;" horiz-adv-x="1304" d="M133 586q0 204 123.5 363t316.5 210v139q0 19 12 31t31 12h175q20 0 32.5 -12t12.5 -31v-127q192 -31 325 -161q10 -25 10 -33q0 -19 -12 -31l-125 -110q-13 -13 -28 -13q-18 0 -39 13q-84 73 -242 73q-130 0 -217.5 -96.5t-87.5 -232.5q0 -134 91.5 -236t215.5 -102 q93 0 139 12.5t125 71.5q16 16 37 16q16 0 29 -10l98 -109q14 -14 14 -30q0 -17 -12 -33q-115 -140 -321 -162v-129q0 -19 -12.5 -31t-32.5 -12h-175q-19 0 -31 12t-12 31v139q-195 50 -317.5 210t-122.5 368z" />
            <glyph unicode="&#xa3;" horiz-adv-x="1247" d="M133 43v182q0 19 12 31t31 12q41 0 73.5 30t35.5 71v80h-105q-20 0 -32.5 11.5t-12.5 31.5v151q0 20 12.5 32.5t32.5 12.5h105v37q0 193 127.5 323t320.5 130q93 0 191 -35.5t161 -95.5q11 -28 11 -39q0 -18 -15 -33l-120 -113q-14 -14 -33 -14q-21 0 -45 18 q-62 43 -152 43q-75 0 -117.5 -53.5t-42.5 -144.5v-23h195q20 0 32.5 -12.5t12.5 -32.5v-151q0 -20 -12.5 -31.5t-32.5 -11.5h-195v-181h500q20 0 31.5 -12t11.5 -31v-182q0 -19 -11.5 -31t-31.5 -12h-895q-19 0 -31 12t-12 31z" />
            <glyph unicode="&#xa4;" horiz-adv-x="1062" d="M133 213q0 18 12 27l99 88q-21 53 -21 112q0 55 21 113l-99 88q-12 12 -12 29q0 11 10 28l80 88q13 13 29 13q8 0 24 -8l95 -86q71 45 164 45q69 0 157 -45l94 86q16 8 25 8q17 0 27 -13l82 -88q10 -25 10 -28q0 -17 -12 -29l-99 -88q21 -58 21 -113q0 -60 -19 -112 l97 -88q12 -9 12 -27q0 -4 -10 -29l-82 -88q-9 -12 -27 -12q-9 0 -25 8l-92 84q-92 -43 -164 -43q-81 0 -159 43l-95 -84q-16 -8 -24 -8q-17 0 -29 12l-80 88q-10 17 -10 29zM436 440q0 -38 28.5 -65t67.5 -27t67 27t28 65t-28.5 66.5t-66.5 28.5t-67 -28.5t-29 -66.5z" />
            <glyph unicode="&#xa5;" horiz-adv-x="1368" d="M133 1110q0 24 13.5 38.5t35.5 14.5h195q51 0 65 -45l242 -395l242 395q14 45 65 45h195q22 0 35.5 -14.5t13.5 -38.5l-297 -492h39q20 0 32.5 -12.5t12.5 -32.5v-120q0 -20 -12.5 -31.5t-32.5 -11.5h-150v-70h150q20 0 32.5 -12.5t12.5 -32.5v-121q0 -20 -12.5 -31.5 t-32.5 -11.5h-150v-88q0 -19 -12 -31t-31 -12h-200q-20 0 -31.5 12t-11.5 31v88h-150q-20 0 -32.5 11.5t-12.5 31.5v121q0 20 12.5 32.5t32.5 12.5h150v70h-150q-20 0 -32.5 11.5t-12.5 31.5v120q0 20 12.5 32.5t32.5 12.5h39z" />
            <glyph unicode="&#xa6;" d="M133 252q0 19 12 31t31 12h199q20 0 32.5 -12t12.5 -31v-559q0 -19 -12.5 -31t-32.5 -12h-199q-19 0 -31 12t-12 31v559zM133 862v559q0 19 12 31t31 12h199q20 0 32.5 -12t12.5 -31v-559q0 -19 -12.5 -31t-32.5 -12h-199q-19 0 -31 12t-12 31z" />
            <glyph unicode="&#xa7;" horiz-adv-x="1099" d="M133 25q0 8 2 14l41 139q11 25 35 25q10 0 18 -2q34 -19 95.5 -37.5t128.5 -18.5q86 0 86 27q0 22 -111 53q-34 9 -55.5 15.5t-54.5 20t-55 27t-47 36t-40 48t-25 61.5t-10 79q0 171 170 231q-4 18 -4 66q0 127 92 194.5t242 67.5q121 0 248 -51q10 -3 22 -27 q0 -16 -2 -20l-43 -152q-3 -10 -14 -17t-23 -7q-1 0 -3 1t-3 1q-82 28 -192 28q-29 0 -43 -4t-16.5 -8.5t-2.5 -13.5q0 -23 115 -58q48 -14 78 -25t73.5 -33.5t68.5 -47t44 -64.5t19 -88q0 -183 -172 -243q6 -20 6 -54q0 -60 -20.5 -108.5t-54.5 -79.5t-80 -52t-93.5 -29.5 t-99.5 -8.5q-176 0 -301 82q-19 14 -19 33zM432 494q0 -25 51 -41.5t95 -16.5q98 0 98 33q0 19 -19 31.5t-49.5 18t-54.5 7.5t-47 2q-30 0 -52 -8.5t-22 -25.5z" />
            <glyph unicode="&#xa8;" horiz-adv-x="1042" d="M133 1010q0 63 45.5 108t108.5 45t108 -45t45 -108t-45 -108.5t-108 -45.5t-108.5 45.5t-45.5 108.5zM602 1010q0 63 45.5 108t108.5 45t108 -45t45 -108t-45 -108.5t-108 -45.5t-108.5 45.5t-45.5 108.5z" />
            <glyph unicode="&#xa9;" horiz-adv-x="1439" d="M133 582q0 160 78.5 297t213.5 217t294 80q160 0 295.5 -80t214 -216.5t78.5 -297.5q0 -160 -78.5 -296t-214 -216t-295.5 -80q-159 0 -294 80t-213.5 216t-78.5 296zM281 582q0 -113 61 -216.5t162.5 -166t214.5 -62.5q114 0 216 62.5t163 165.5t61 217t-61 218 t-163 167t-216 63q-113 0 -214.5 -63t-162.5 -167t-61 -218zM393 578q0 140 102 237.5t244 97.5q138 0 222 -84q10 -13 10 -32q0 -5 -10 -25l-54 -88q-11 -14 -26 -14q-22 0 -39 10q-21 12 -52.5 21.5t-52.5 9.5q-56 0 -92.5 -36t-36.5 -100q0 -61 37.5 -102t91.5 -41 q58 0 111 27q28 14 35 14q16 0 24 -8l51 -88q11 -22 11 -27q0 -18 -8 -31q-89 -83 -222 -83q-141 0 -243.5 102t-102.5 240z" />
            <glyph unicode="&#xaa;" horiz-adv-x="813" d="M133 705q0 103 61 151.5t166 48.5q65 0 115 -18q-7 40 -30 55.5t-66 15.5q-60 0 -115 -10q-20 -4 -24 -4q-2 0 -6.5 1.5t-11.5 7t-11 12.5l-43 114q0 17 10 31q100 53 209 53q148 0 220.5 -80t72.5 -219v-336q0 -36 -37 -36h-88q-24 0 -45 53q-19 -25 -54.5 -40 t-57.5 -18.5t-36 -3.5q-24 0 -50.5 5t-59.5 20t-58.5 38t-43 64.5t-17.5 94.5zM324 713q0 -41 82 -41q43 0 69 26v23q-15 29 -65 29q-86 0 -86 -37z" />
            <glyph unicode="&#xab;" horiz-adv-x="1253" d="M133 426l160 383q16 35 49 35h217q18 0 30.5 -10.5t12.5 -28.5q0 -11 -4 -19l-156 -366l154 -363q4 -8 4 -18q0 -17 -12.5 -28t-30.5 -11h-217q-32 0 -49 35l-154 368q-4 12 -4 23zM651 426l160 383q16 35 49 35h217q18 0 30.5 -10.5t12.5 -28.5q0 -11 -4 -19l-155 -366 l153 -363q4 -8 4 -18q0 -17 -12.5 -28t-30.5 -11h-217q-32 0 -49 35l-154 368q-4 12 -4 23z" />
            <glyph unicode="&#xac;" horiz-adv-x="942" d="M133 332v157q0 19 12 31t31 12h590q20 0 31.5 -12t11.5 -31v-362q0 -43 -43 -43h-176q-19 0 -31 11.5t-12 31.5v162h-371q-19 0 -31 12t-12 31z" />
            <glyph unicode="&#xad;" horiz-adv-x="405" />
            <glyph unicode="&#xae;" horiz-adv-x="1439" d="M133 582q0 160 78.5 297t213.5 217t294 80q160 0 295.5 -80t214 -216.5t78.5 -297.5q0 -160 -78.5 -296t-214 -216t-295.5 -80q-159 0 -294 80t-213.5 216t-78.5 296zM281 582q0 -113 61 -216.5t162.5 -166t214.5 -62.5q114 0 216 62.5t163 165.5t61 217t-61 218 t-163 167t-216 63q-113 0 -214.5 -63t-162.5 -167t-61 -218zM473 313v572q0 30 31 30h213q274 0 274 -243q0 -59 -30 -111.5t-76 -83.5l102 -158q0 -14 -10 -25t-23 -11h-135q-26 0 -35 26l-77 140h-27v-136q0 -30 -33 -30h-143q-31 0 -31 30zM680 631h53q51 0 51 43 q0 47 -51 47h-53v-90z" />
            <glyph unicode="&#xaf;" horiz-adv-x="942" d="M133 963v157q0 19 12 31t31 12h590q20 0 31.5 -12t11.5 -31v-157q0 -19 -11.5 -31t-31.5 -12h-590q-19 0 -31 12t-12 31z" />
            <glyph unicode="&#xb0;" horiz-adv-x="872" d="M133 860q0 125 90 214t215 89q124 0 212.5 -88.5t88.5 -214.5q0 -123 -89 -214t-212 -91q-124 0 -214.5 91t-90.5 214zM354 858q0 -41 24 -67.5t60 -26.5q33 0 56.5 27t23.5 67q0 39 -23.5 63.5t-56.5 24.5q-36 0 -60 -24t-24 -64z" />
            <glyph unicode="&#xb1;" horiz-adv-x="983" d="M133 43v190q0 19 12 31t31 12h631q19 0 31 -12t12 -31v-190q0 -20 -12 -31.5t-31 -11.5h-631q-19 0 -31 11.5t-12 31.5zM133 612v191q0 19 12 31t31 12h170v182q0 19 11.5 31t31.5 12h205q19 0 31 -12t12 -31v-182h170q19 0 31 -12t12 -31v-191q0 -20 -12 -31.5 t-31 -11.5h-170v-180q0 -19 -12 -31t-31 -12h-205q-20 0 -31.5 12t-11.5 31v180h-170q-19 0 -31 11.5t-12 31.5z" />
            <glyph unicode="&#xb2;" horiz-adv-x="739" d="M133 537v69q0 44 27 85t65 71t76 57.5t65 57t27 57.5q0 12 -17 23.5t-48 11.5q-57 0 -109 -27q-12 -6 -22 -6q-26 0 -33 37l-27 96q-4 12 -4 14q9 24 19 29q27 19 84.5 35t109.5 16q125 0 190.5 -56.5t65.5 -166.5q0 -60 -39 -115t-125 -125h135q14 0 23.5 -9.5 t9.5 -24.5v-129q0 -11 -10 -21t-23 -10h-409q-10 0 -20.5 10t-10.5 21z" />
            <glyph unicode="&#xb3;" horiz-adv-x="729" d="M133 594q0 16 6 22l39 103q10 10 29 10q52 -24 133 -24q32 0 42.5 10.5t10.5 38.5q0 24 -19 37t-39 15.5t-50 2.5q-23 0 -37 -2q-9 0 -18 8.5t-9 22.5l92 133h-149q-11 0 -21 9.5t-10 23.5v129q0 10 10 20t21 10h397q12 0 21.5 -8t9.5 -20q0 -13 -6 -19l-86 -184 q96 -44 96 -184q0 -102 -67.5 -170t-190.5 -68q-52 0 -110 14.5t-87 42.5q-8 8 -8 27z" />
            <glyph unicode="&#xb4;" horiz-adv-x="657" d="M133 866l109 260q2 4 6 11.5t6 10.5t6 7.5t9.5 6t13.5 1.5h198q20 0 31.5 -13t11.5 -34l-180 -264q-21 -33 -51 -33h-117q-20 0 -31.5 13t-11.5 34z" />
            <glyph unicode="&#xb5;" horiz-adv-x="1038" d="M133 -307v1083q0 19 11.5 31t31.5 12h201q19 0 31 -12t12 -31v-407q0 -32 2.5 -51t12.5 -39t32 -29.5t57 -9.5q48 0 71 36t23 93v407q0 19 12 31t32 12h200q19 0 31 -12t12 -31v-733q0 -19 -12 -31t-31 -12h-104q-27 0 -39 8t-21 33l-10 43q-38 -55 -75.5 -74.5 t-92.5 -19.5q-74 0 -100 28v-325q0 -19 -12 -31t-31 -12h-201q-20 0 -31.5 12t-11.5 31z" />
            <glyph unicode="&#xb6;" horiz-adv-x="1337" d="M133 707q0 174 116.5 303.5t289.5 152.5h622q19 0 31 -12t12 -31v-1429q0 -19 -12 -31t-31 -12h-200q-20 0 -31.5 12t-11.5 31v1227h-117v-1227q0 -19 -12.5 -31t-32.5 -12h-199q-19 0 -31 12t-12 31l-2 563q-156 39 -267.5 167.5t-111.5 285.5z" />
            <glyph unicode="&#xb7;" horiz-adv-x="559" d="M133 403q0 62 42.5 105t103.5 43t104 -43t43 -105q0 -61 -42.5 -103t-104.5 -42t-104 42t-42 103z" />
            <glyph unicode="&#xb8;" horiz-adv-x="667" d="M133 -238q0 9 6 21l37 63q11 11 29 11q3 -1 21.5 -11t44.5 -19t51 -9q36 0 36 14q0 17 -129 74l13 88h178q-1 -10 -2 -18.5t-1.5 -12.5t-0.5 -6l16 -10q32 -21 44 -29.5t29.5 -25.5t23.5 -35t6 -43q0 -76 -55 -109t-136 -33q-62 0 -106.5 15t-94.5 55q-10 10 -10 20z" />
            <glyph unicode="&#xb9;" horiz-adv-x="626" d="M133 907v105q0 11 8.5 20t20.5 10q92 20 200 86q72 35 101 35q11 0 21 -8.5t10 -19.5v-588q0 -11 -10.5 -23t-20.5 -12h-144q-16 0 -24 11t-8 24v354q-61 -24 -125 -24q-12 0 -20.5 9.5t-8.5 20.5z" />
            <glyph unicode="&#xba;" horiz-adv-x="872" d="M133 860q0 125 90 214t215 89q124 0 212.5 -88.5t88.5 -214.5q0 -123 -89 -214t-212 -91q-124 0 -214.5 91t-90.5 214zM354 858q0 -41 24 -67.5t60 -26.5q33 0 56.5 27t23.5 67q0 39 -23.5 63.5t-56.5 24.5q-36 0 -60 -24t-24 -64z" />
            <glyph unicode="&#xbb;" horiz-adv-x="1253" d="M133 805q0 18 12.5 28.5t30.5 10.5h217q33 0 49 -35l160 -383q0 -11 -4 -23l-154 -368q-18 -35 -49 -35h-217q-18 0 -30.5 11t-12.5 28q0 10 4 18l154 363l-156 366q-4 8 -4 19zM651 805q0 18 12.5 28.5t30.5 10.5h217q34 0 50 -35l159 -383q0 -11 -4 -23l-153 -368 q-17 -35 -50 -35h-217q-18 0 -30.5 11t-12.5 28q0 10 4 18l154 363l-156 366q-4 8 -4 19z" />
            <glyph unicode="&#xbc;" horiz-adv-x="1574" d="M133 907v105q0 11 8.5 20t20.5 10q92 20 200 86q72 35 101 35q11 0 21 -8.5t10 -19.5v-588q0 -11 -10.5 -23t-20.5 -12h-144q-16 0 -24 11t-8 24v354q-61 -24 -125 -24q-12 0 -20.5 9.5t-8.5 20.5zM432 45l408 1083q18 35 49 35h129q20 0 31.5 -13t11.5 -32l-408 -1083 q-22 -35 -49 -35h-129q-19 0 -31 13t-12 32zM881 117q0 -14 9.5 -23.5t20.5 -9.5h265v-49q0 -13 8 -24t24 -11h142q10 0 20 12t10 23v49h29q11 0 21 9.5t10 23.5v112q0 11 -10 21t-21 10h-29v324q0 10 -10 20t-20 10h-168q-16 0 -27 -14l-260 -309q-4 -6 -9 -20.5t-5 -20.5 v-133zM1069 260l107 131v-131h-107z" />
            <glyph unicode="&#xbd;" horiz-adv-x="1583" d="M133 907v105q0 11 8.5 20t20.5 10q92 20 200 86q72 35 101 35q11 0 21 -8.5t10 -19.5v-588q0 -11 -10.5 -23t-20.5 -12h-144q-16 0 -24 11t-8 24v354q-61 -24 -125 -24q-12 0 -20.5 9.5t-8.5 20.5zM432 45l408 1083q18 35 49 35h129q20 0 31.5 -13t11.5 -32l-408 -1083 q-22 -35 -49 -35h-129q-19 0 -31 13t-12 32zM977 31q0 -11 10.5 -21t20.5 -10h409q13 0 23 10t10 21v129q0 15 -9.5 25t-23.5 10h-135q86 70 125 124.5t39 114.5q0 110 -65.5 166.5t-190.5 56.5q-52 0 -110 -16t-85 -35q-9 -5 -18 -28q0 -3 4 -15l27 -96q7 -37 32 -37 q11 0 23 6q52 27 108 27q31 0 48.5 -11.5t17.5 -23.5q0 -28 -27 -57.5t-65 -57t-76 -57.5t-65 -71t-27 -85v-69z" />
            <glyph unicode="&#xbe;" horiz-adv-x="1589" d="M133 594q0 16 6 22l39 103q10 10 29 10q52 -24 133 -24q32 0 42.5 10.5t10.5 38.5q0 24 -19 37t-39 15.5t-50 2.5q-23 0 -37 -2q-9 0 -18 8.5t-9 22.5l92 133h-149q-11 0 -21 9.5t-10 23.5v129q0 10 10 20t21 10h397q12 0 21.5 -8t9.5 -20q0 -13 -6 -19l-86 -184 q96 -44 96 -184q0 -102 -67.5 -170t-190.5 -68q-52 0 -110 14.5t-87 42.5q-8 8 -8 27zM467 45l407 1083q18 35 50 35h129q20 0 31.5 -13t11.5 -32l-408 -1083q-22 -35 -49 -35h-129q-19 0 -31 13t-12 32zM897 117q0 -14 10 -23.5t21 -9.5h264v-49q0 -12 8.5 -23.5 t24.5 -11.5h141q10 0 20.5 12t10.5 23v49h28q11 0 21 9.5t10 23.5v112q0 11 -10 21t-21 10h-28v324q0 10 -10 20t-21 10h-168q-16 0 -27 -14l-260 -309q-4 -6 -9 -20.5t-5 -20.5v-133zM1085 260l107 131v-131h-107z" />
            <glyph unicode="&#xbf;" horiz-adv-x="991" d="M133 303q0 49 23.5 97t57.5 87t67.5 76.5t57 79.5t23.5 82v29q0 19 12.5 31t31.5 12h200q20 0 31.5 -12t11.5 -31v-66q0 -56 -23.5 -108.5t-57.5 -90t-67.5 -70t-57 -62t-23.5 -52.5q0 -22 28.5 -33.5t71.5 -11.5q46 0 107.5 17t93.5 36q9 6 22 6q10 0 23 -9.5t18 -18.5 l70 -152q4 -8 4 -22q-9 -26 -24 -37q-51 -35 -138 -62.5t-180 -27.5q-79 0 -145.5 17t-121 53t-85.5 98t-31 145zM352 1024q0 63 45.5 108.5t108.5 45.5t108 -45.5t45 -108.5t-45 -108.5t-108 -45.5t-108.5 45.5t-45.5 108.5z" />
            <glyph unicode="&#xc0;" horiz-adv-x="1236" d="M31 47l528 1092q26 30 59 30q34 0 60 -30l528 -1092q0 -20 -12 -33.5t-31 -13.5h-219q-27 0 -49 35l-82 176h-389l-82 -176q-22 -35 -49 -35h-219q-19 0 -31 13.5t-12 33.5zM324 1604q0 21 11.5 34t31.5 13h198q8 0 13.5 -1.5t9.5 -6t6 -7.5t6 -10.5t6 -11.5l109 -260 q0 -21 -11.5 -34t-31.5 -13h-117q-31 0 -51 32zM528 449h177l-87 178z" />
            <glyph unicode="&#xc1;" horiz-adv-x="1236" d="M31 47l528 1092q26 30 59 30q34 0 60 -30l528 -1092q0 -20 -12 -33.5t-31 -13.5h-219q-27 0 -49 35l-82 176h-389l-82 -176q-22 -35 -49 -35h-219q-19 0 -31 13.5t-12 33.5zM528 449h177l-87 178zM530 1354l109 260q2 4 6 11.5t6 10.5t6 7.5t9.5 6t13.5 1.5h199 q20 0 31.5 -13t11.5 -34l-181 -265q-20 -32 -51 -32h-117q-20 0 -31.5 13t-11.5 34z" />
            <glyph unicode="&#xc2;" horiz-adv-x="1236" d="M31 47l528 1092q26 30 59 30q34 0 60 -30l528 -1092q0 -20 -12 -33.5t-31 -13.5h-219q-27 0 -49 35l-82 176h-389l-82 -176q-22 -35 -49 -35h-219q-19 0 -31 13.5t-12 33.5zM332 1458q0 16 14 33l201 141l11 6q11 7 20.5 11t17.5 4h41q8 0 17.5 -4t20.5 -11l11 -6 l201 -141q14 -17 14 -33q0 -6 -10 -26l-94 -111q-7 -12 -25 -12q-10 0 -29 8l-127 94l-127 -94q-19 -8 -28 -8q-18 0 -25 12l-94 111q-10 20 -10 26zM528 449h177l-87 178z" />
            <glyph unicode="&#xc3;" horiz-adv-x="1236" d="M31 47l528 1092q26 30 59 30q34 0 60 -30l528 -1092q0 -20 -12 -33.5t-31 -13.5h-219q-27 0 -49 35l-82 176h-389l-82 -176q-22 -35 -49 -35h-219q-19 0 -31 13.5t-12 33.5zM309 1511q0 22 19 35q95 74 178 74q49 0 119.5 -34t101.5 -34q54 0 98 33q12 6 21 6 q19 0 39 -20l53 -139q0 -36 -20 -46q-92 -79 -193 -79q-40 0 -109.5 33.5t-109.5 33.5q-51 0 -84 -28q-15 -5 -23 -5q-27 0 -37 21l-49 127q-4 16 -4 22zM528 449h177l-87 178z" />
            <glyph unicode="&#xc4;" horiz-adv-x="1236" d="M31 47l528 1092q26 30 59 30q34 0 60 -30l528 -1092q0 -20 -12 -33.5t-31 -13.5h-219q-27 0 -49 35l-82 176h-389l-82 -176q-22 -35 -49 -35h-219q-19 0 -31 13.5t-12 33.5zM236 1460q0 63 45 108.5t108 45.5t108.5 -45.5t45.5 -108.5t-45.5 -108t-108.5 -45t-108 45 t-45 108zM528 449h177l-87 178zM705 1460q0 63 45 108.5t108 45.5t108.5 -45.5t45.5 -108.5t-45.5 -108t-108.5 -45t-108 45t-45 108z" />
            <glyph unicode="&#xc5;" horiz-adv-x="1236" d="M31 47l528 1092q26 30 59 30q34 0 60 -30l528 -1092q0 -20 -12 -33.5t-31 -13.5h-219q-27 0 -49 35l-82 176h-389l-82 -176q-22 -35 -49 -35h-219q-19 0 -31 13.5t-12 33.5zM354 1569q0 109 79.5 186.5t187.5 77.5q105 0 182.5 -77.5t77.5 -186.5q0 -104 -78 -183 t-182 -79q-107 0 -187 79t-80 183zM528 449h177l-87 178zM553 1565q0 -31 19.5 -52.5t48.5 -21.5q24 0 42.5 22t18.5 52q0 31 -18.5 52t-42.5 21q-30 0 -49 -20t-19 -53z" />
            <glyph unicode="&#xc6;" horiz-adv-x="1851" d="M20 47l857 1092q24 24 49 24h780q19 0 31 -12t12 -31v-190q0 -20 -12 -31.5t-31 -11.5h-500v-176h393q19 0 31 -12t12 -31v-185q0 -20 -12 -31.5t-31 -11.5h-393v-170h500q19 0 31 -12t12 -31v-184q0 -20 -12 -31.5t-31 -11.5h-743q-20 0 -32.5 12t-12.5 31v236h-349 l-196 -248q-24 -33 -68 -33h-242q-19 0 -31 13.5t-12 35.5zM754 516h164v213z" />
            <glyph unicode="&#xc7;" horiz-adv-x="1181" d="M82 584q0 121 46.5 231t125.5 189.5t189.5 126.5t232.5 47q124 0 237 -44t197 -126q10 -25 10 -33q0 -19 -12 -31l-125 -110q-13 -13 -29 -13q-18 0 -39 13q-84 73 -241 73q-130 0 -217.5 -96.5t-87.5 -232.5q0 -134 91.5 -236t215.5 -102q93 0 139 12.5t125 71.5 q16 16 37 16q16 0 29 -10l98 -109q14 -14 14 -31q0 -16 -12 -32q-126 -151 -365 -164q-2 -16 -2 -35l17 -10q31 -20 43.5 -29.5t29.5 -26t23 -34.5t6 -43q0 -76 -54.5 -109t-135.5 -33q-62 0 -106.5 15t-94.5 55q-10 10 -10 20q0 9 6 21l37 63q11 11 28 11q3 -1 21.5 -11 t44.5 -19t51 -9q37 0 37 14q0 17 -129 74l8 92q-136 23 -245.5 106t-171.5 208.5t-62 269.5z" />
            <glyph unicode="&#xc8;" horiz-adv-x="1064" d="M133 43v1077q0 19 12 31t31 12h744q19 0 31 -12t12 -31v-190q0 -20 -12 -31.5t-31 -11.5h-500v-176h393q19 0 31 -12t12 -31v-185q0 -20 -12 -31.5t-31 -11.5h-393v-170h500q19 0 31 -12t12 -31v-184q0 -20 -12 -31.5t-31 -11.5h-744q-19 0 -31 12t-12 31zM252 1604 q0 21 11.5 34t31.5 13h199q8 0 13.5 -1.5t9.5 -6t6 -7.5t6 -10.5t6 -11.5l108 -260q0 -21 -11.5 -34t-31.5 -13h-117q-31 0 -51 32z" />
            <glyph unicode="&#xc9;" horiz-adv-x="1064" d="M133 43v1077q0 19 12 31t31 12h744q19 0 31 -12t12 -31v-190q0 -20 -12 -31.5t-31 -11.5h-500v-176h393q19 0 31 -12t12 -31v-185q0 -20 -12 -31.5t-31 -11.5h-393v-170h500q19 0 31 -12t12 -31v-184q0 -20 -12 -31.5t-31 -11.5h-744q-19 0 -31 12t-12 31zM453 1354 l108 260q2 4 6 11.5t6 10.5t6 7.5t9.5 6t13.5 1.5h199q20 0 31.5 -13t11.5 -34l-180 -265q-20 -32 -52 -32h-116q-20 0 -31.5 13t-11.5 34z" />
            <glyph unicode="&#xca;" horiz-adv-x="1064" d="M133 43v1077q0 19 12 31t31 12h744q19 0 31 -12t12 -31v-190q0 -20 -12 -31.5t-31 -11.5h-500v-176h393q19 0 31 -12t12 -31v-185q0 -20 -12 -31.5t-31 -11.5h-393v-170h500q19 0 31 -12t12 -31v-184q0 -20 -12 -31.5t-31 -11.5h-744q-19 0 -31 12t-12 31zM287 1458 q0 16 14 33l201 141l11 6q11 7 20.5 11t17.5 4h41q8 0 17.5 -4t20.5 -11l11 -6l201 -141q14 -17 14 -33q0 -6 -10 -26l-94 -111q-7 -12 -25 -12q-10 0 -29 8l-127 94l-127 -94q-19 -8 -28 -8q-18 0 -25 12l-94 111q-10 20 -10 26z" />
            <glyph unicode="&#xcb;" horiz-adv-x="1064" d="M133 43v1077q0 19 12 31t31 12h744q19 0 31 -12t12 -31v-190q0 -20 -12 -31.5t-31 -11.5h-500v-176h393q19 0 31 -12t12 -31v-185q0 -20 -12 -31.5t-31 -11.5h-393v-170h500q19 0 31 -12t12 -31v-184q0 -20 -12 -31.5t-31 -11.5h-744q-19 0 -31 12t-12 31zM201 1460 q0 63 45 108.5t108 45.5t108.5 -45.5t45.5 -108.5t-45.5 -108t-108.5 -45t-108 45t-45 108zM610 1460q0 63 45.5 108.5t108.5 45.5t108.5 -45.5t45.5 -108.5t-45.5 -108t-108.5 -45t-108.5 45t-45.5 108z" />
            <glyph unicode="&#xcc;" d="M-10 1604q0 21 11.5 34t31.5 13h198q8 0 13.5 -1.5t9.5 -6t6 -7.5t6 -10.5t6 -11.5l109 -260q0 -21 -11.5 -34t-31.5 -13h-117q-31 0 -51 32zM133 43v1077q0 19 11.5 31t31.5 12h201q19 0 31 -12t12 -31v-1077q0 -19 -12 -31t-31 -12h-201q-20 0 -31.5 12t-11.5 31z" />
            <glyph unicode="&#xcd;" d="M133 43v1077q0 19 12 31t31 12h201q20 0 31.5 -12t11.5 -31v-1077q0 -19 -11.5 -31t-31.5 -12h-201q-19 0 -31 12t-12 31zM172 1354l109 260q2 4 6 11.5t6 10.5t6 7.5t9.5 6t13.5 1.5h198q20 0 31.5 -13t11.5 -34l-180 -265q-20 -32 -51 -32h-117q-20 0 -31.5 13 t-11.5 34z" />
            <glyph unicode="&#xce;" d="M-10 1458q0 16 14 33l201 141l11 6q11 7 20.5 11t17.5 4h41q8 0 17.5 -4t20.5 -11l11 -6l201 -141q14 -17 14 -33q0 -6 -10 -26l-94 -111q-7 -12 -25 -12q-10 0 -29 8l-127 94l-127 -94q-19 -8 -28 -8q-18 0 -25 12l-94 111q-10 20 -10 26zM133 43v1077q0 19 12 31t31 12 h201q20 0 31.5 -12t11.5 -31v-1077q0 -19 -11.5 -31t-31.5 -12h-201q-19 0 -31 12t-12 31z" />
            <glyph unicode="&#xcf;" d="M-66 1460q0 63 45.5 108.5t108.5 45.5t108.5 -45.5t45.5 -108.5t-45.5 -108t-108.5 -45t-108.5 45t-45.5 108zM133 43v1077q0 19 12 31t31 12h201q20 0 31.5 -12t11.5 -31v-1077q0 -19 -11.5 -31t-31.5 -12h-201q-19 0 -31 12t-12 31zM307 1460q0 63 45.5 108.5 t108.5 45.5t108 -45.5t45 -108.5t-45 -108t-108 -45t-108.5 45t-45.5 108z" />
            <glyph unicode="&#xd0;" horiz-adv-x="1222" d="M20 471v191q0 19 12 31t31 12h117v415q0 19 12 31t31 12h389q161 0 289.5 -77.5t199 -211t70.5 -296.5t-70.5 -294.5t-199 -207.5t-289.5 -76h-389q-19 0 -31 12t-12 31v385h-117q-19 0 -31 11.5t-12 31.5zM467 270h117q130 0 215.5 85t85.5 216q0 133 -86 224.5 t-215 91.5h-117v-182h201q19 0 31 -12t12 -31v-191q0 -20 -12 -31.5t-31 -11.5h-201v-158z" />
            <glyph unicode="&#xd1;" horiz-adv-x="1280" d="M133 43v1092q0 19 14 30t39 11l674 -435v361q0 26 17 43.5t45 17.5h163q26 0 44 -17.5t18 -43.5v-1059q0 -19 -12 -31t-31 -12h-201q-20 0 -31.5 12t-11.5 31v354l-440 289v-643q0 -19 -12 -31t-31 -12h-201q-20 0 -31.5 12t-11.5 31zM279 1511q0 23 18 35q95 74 178 74 q49 0 119.5 -34t101.5 -34q55 0 99 33q12 6 20 6q19 0 39 -20l53 -139q0 -36 -20 -46q-92 -79 -193 -79q-40 0 -109.5 33.5t-109.5 33.5q-51 0 -84 -28q-15 -5 -22 -5q-27 0 -37 21l-49 127q-4 16 -4 22z" />
            <glyph unicode="&#xd2;" horiz-adv-x="1343" d="M82 584q0 162 78.5 298.5t214.5 216t297 79.5t297 -79.5t214.5 -216t78.5 -298.5t-78.5 -298.5t-214.5 -216t-297 -79.5t-297 79.5t-214.5 216t-78.5 298.5zM369 578q0 -137 86.5 -237.5t214.5 -100.5q131 0 218 100.5t87 237.5q0 136 -87 232.5t-218 96.5 q-129 0 -215 -96.5t-86 -232.5zM371 1604q0 21 11.5 34t31.5 13h198q8 0 13.5 -1.5t9.5 -6t6 -7.5t6 -10.5t6 -11.5l109 -260q0 -21 -11.5 -34t-31.5 -13h-117q-31 0 -51 32z" />
            <glyph unicode="&#xd3;" horiz-adv-x="1343" d="M82 584q0 162 78.5 298.5t214.5 216t297 79.5t297 -79.5t214.5 -216t78.5 -298.5t-78.5 -298.5t-214.5 -216t-297 -79.5t-297 79.5t-214.5 216t-78.5 298.5zM369 578q0 -137 87 -237.5t218 -100.5q128 0 214.5 100.5t86.5 237.5q0 136 -86 232.5t-215 96.5 q-131 0 -218 -96.5t-87 -232.5zM582 1354l108 260q2 4 6 11.5t6 10.5t6 7.5t9.5 6t13.5 1.5h199q20 0 31.5 -13t11.5 -34l-180 -265q-20 -32 -52 -32h-116q-20 0 -31.5 13t-11.5 34z" />
            <glyph unicode="&#xd4;" horiz-adv-x="1343" d="M82 584q0 162 78.5 298.5t214.5 216t297 79.5t297 -79.5t214.5 -216t78.5 -298.5t-78.5 -298.5t-214.5 -216t-297 -79.5t-297 79.5t-214.5 216t-78.5 298.5zM369 578q0 -137 87 -237.5t218 -100.5q128 0 214.5 100.5t86.5 237.5q0 136 -86 232.5t-215 96.5 q-131 0 -218 -96.5t-87 -232.5zM387 1458q0 16 14 33l201 141l11 6q11 7 20.5 11t17.5 4h41q8 0 17.5 -4t20.5 -11l11 -6l201 -141q14 -17 14 -33q0 -6 -10 -26l-94 -111q-7 -12 -25 -12q-9 0 -28 8l-127 94l-127 -94q-19 -8 -29 -8q-17 0 -24 12l-95 111q-10 20 -10 26z " />
            <glyph unicode="&#xd5;" horiz-adv-x="1343" d="M82 584q0 162 78.5 298.5t214.5 216t297 79.5t297 -79.5t214.5 -216t78.5 -298.5t-78.5 -298.5t-214.5 -216t-297 -79.5t-297 79.5t-214.5 216t-78.5 298.5zM365 1511q0 23 18 35q95 74 178 74q49 0 119.5 -34t101.5 -34q55 0 99 33q12 6 20 6q19 0 39 -20l53 -139 q0 -36 -20 -46q-92 -79 -193 -79q-40 0 -109.5 33.5t-109.5 33.5q-51 0 -84 -28q-15 -5 -22 -5q-27 0 -37 21l-49 127q-4 16 -4 22zM369 578q0 -137 87 -237.5t218 -100.5q128 0 214.5 100.5t86.5 237.5q0 136 -86 232.5t-215 96.5q-131 0 -218 -96.5t-87 -232.5z" />
            <glyph unicode="&#xd6;" horiz-adv-x="1343" d="M82 584q0 162 78.5 298.5t214.5 216t297 79.5t297 -79.5t214.5 -216t78.5 -298.5t-78.5 -298.5t-214.5 -216t-297 -79.5t-297 79.5t-214.5 216t-78.5 298.5zM291 1460q0 63 45 108.5t108 45.5t108.5 -45.5t45.5 -108.5t-45.5 -108t-108.5 -45t-108 45t-45 108zM369 578 q0 -137 87 -237.5t218 -100.5q128 0 214.5 100.5t86.5 237.5q0 136 -86 232.5t-215 96.5q-131 0 -218 -96.5t-87 -232.5zM760 1460q0 63 45 108.5t108 45.5t108.5 -45.5t45.5 -108.5t-45.5 -108t-108.5 -45t-108 45t-45 108z" />
            <glyph unicode="&#xd7;" horiz-adv-x="905" d="M133 262q0 17 14 31l136 133q-18 18 -64.5 62.5t-71.5 70.5q-14 14 -14 31q0 12 12 28l113 113q20 12 29 12q16 0 30 -14l136 -133l135 133q14 14 30 14q9 0 29 -12l113 -113q12 -16 12 -28q0 -17 -14 -31q-26 -27 -72.5 -72t-62.5 -61l135 -133q14 -14 14 -31 q0 -20 -16 -33l-107 -106q-14 -17 -31 -17t-32 15l-133 133l-134 -133q-15 -15 -32 -15t-31 17l-106 106q-17 14 -17 33z" />
            <glyph unicode="&#xd8;" horiz-adv-x="1343" d="M82 584q0 162 78.5 298.5t214.5 216t297 79.5q53 0 116 -13l37 99q16 32 47 32h107q19 0 31 -12t12 -31l-57 -153q136 -78 216.5 -215.5t80.5 -300.5q0 -162 -78.5 -298.5t-214.5 -216t-297 -79.5q-62 0 -121 12l-37 -96q-16 -33 -47 -33h-107q-20 0 -31.5 13t-11.5 32 l58 152q-134 79 -213.5 215.5t-79.5 298.5zM369 578q0 -73 26.5 -140t73.5 -114l221 581q-4 0 -10.5 1t-9.5 1q-129 0 -215 -96.5t-86 -232.5zM641 240h29q131 0 218 100.5t87 237.5q0 75 -29.5 142.5t-81.5 113.5z" />
            <glyph unicode="&#xd9;" horiz-adv-x="1261" d="M133 518v602q0 19 11.5 31t31.5 12h201q19 0 31 -12t12 -31v-612q0 -145 48.5 -206.5t162.5 -61.5t162.5 61.5t48.5 206.5v612q0 19 12 31t31 12h200q20 0 31.5 -12t11.5 -31v-602q0 -247 -127 -387.5t-372 -140.5q-243 0 -369.5 140.5t-126.5 387.5zM340 1604 q0 21 11.5 34t31.5 13h199q8 0 13.5 -1.5t9.5 -6t6 -7.5t6 -10.5t6 -11.5l108 -260q0 -21 -11.5 -34t-31.5 -13h-117q-31 0 -51 32z" />
            <glyph unicode="&#xda;" horiz-adv-x="1261" d="M133 518v602q0 19 11.5 31t31.5 12h201q19 0 31 -12t12 -31v-612q0 -145 48.5 -206.5t162.5 -61.5t162.5 61.5t48.5 206.5v612q0 19 12 31t31 12h200q20 0 31.5 -12t11.5 -31v-602q0 -247 -126.5 -387.5t-368.5 -140.5q-245 0 -372.5 140.5t-127.5 387.5zM530 1354 l109 260q2 4 6 11.5t6 10.5t6 7.5t9.5 6t13.5 1.5h199q20 0 31.5 -13t11.5 -34l-181 -265q-20 -32 -51 -32h-117q-20 0 -31.5 13t-11.5 34z" />
            <glyph unicode="&#xdb;" horiz-adv-x="1261" d="M133 518v602q0 19 11.5 31t31.5 12h201q19 0 31 -12t12 -31v-612q0 -145 48.5 -206.5t162.5 -61.5t162.5 61.5t48.5 206.5v612q0 19 12 31t31 12h200q20 0 31.5 -12t11.5 -31v-602q0 -247 -126.5 -387.5t-368.5 -140.5q-245 0 -372.5 140.5t-127.5 387.5zM348 1458 q0 16 14 33l201 141l11 6q11 7 20.5 11t17.5 4h41q8 0 17.5 -4t20.5 -11l11 -6l201 -141q15 -18 15 -33q0 -4 -11 -26l-94 -111q-7 -12 -25 -12q-9 0 -28 8l-127 94l-127 -94q-19 -8 -29 -8q-17 0 -24 12l-95 111q-10 20 -10 26z" />
            <glyph unicode="&#xdc;" horiz-adv-x="1261" d="M133 518v602q0 19 11.5 31t31.5 12h201q19 0 31 -12t12 -31v-612q0 -145 48.5 -206.5t162.5 -61.5t162.5 61.5t48.5 206.5v612q0 19 12 31t31 12h200q20 0 31.5 -12t11.5 -31v-602q0 -247 -127 -387.5t-372 -140.5q-243 0 -369.5 140.5t-126.5 387.5zM272 1460 q0 63 45.5 108.5t108.5 45.5t108.5 -45.5t45.5 -108.5t-45.5 -108t-108.5 -45t-108.5 45t-45.5 108zM682 1460q0 63 45.5 108.5t108.5 45.5t108 -45.5t45 -108.5t-45 -108t-108 -45t-108.5 45t-45.5 108z" />
            <glyph unicode="&#xdd;" horiz-adv-x="1163" d="M31 1110l407 -676v-391q0 -19 11.5 -31t31.5 -12h201q19 0 31 12t12 31v391l408 676q0 24 -14 38.5t-36 14.5h-194q-52 0 -66 -45l-241 -395l-242 395q-14 45 -66 45h-194q-22 0 -35.5 -14.5t-13.5 -38.5zM510 1354l108 260q2 4 6 11.5t6 10.5t6 7.5t9.5 6t13.5 1.5h199 q20 0 31.5 -13t11.5 -34l-180 -265q-20 -32 -51 -32h-117q-20 0 -31.5 13t-11.5 34z" />
            <glyph unicode="&#xde;" horiz-adv-x="1058" d="M133 43v1077q0 19 11.5 31t31.5 12h201q19 0 31 -12t12 -31v-129h246q154 0 258 -111.5t104 -289.5t-104 -287.5t-258 -109.5h-246v-150q0 -19 -12 -31t-31 -12h-201q-20 0 -31.5 12t-11.5 31zM420 469h231q39 0 64.5 31t25.5 88t-25.5 85.5t-64.5 28.5h-231v-233z" />
            <glyph unicode="&#xdf;" horiz-adv-x="1132" d="M133 43v772q0 145 102.5 246.5t249.5 101.5h201q148 0 251 -101.5t103 -246.5q0 -130 -86 -229q37 -45 61.5 -111t24.5 -127q0 -146 -103.5 -247t-250.5 -101h-135q-20 0 -31.5 12t-11.5 31v184q0 43 43 43h94q47 0 78 23t31 65q0 28 -5.5 47.5t-29.5 36.5t-66 17h-98 q-19 0 -31 12t-12 31v157q0 20 12 31.5t31 11.5h92q107 0 107 95q0 41 -31 65.5t-76 24.5h-123q-42 0 -73 -32t-31 -75v-737q0 -19 -12 -31t-31 -12h-201q-19 0 -31 12t-12 31z" />
            <glyph unicode="&#xe0;" horiz-adv-x="911" d="M72 262q0 115 72.5 170t195.5 55q108 0 162 -30q-13 61 -42 81.5t-89 20.5q-82 0 -127 -12q-12 -2 -25 -2q-39 0 -53 28l-45 127q-4 16 -4 31q0 31 24 47q85 33 140.5 42t124.5 9q194 0 288 -98t94 -276v-412q0 -19 -12 -31t-31 -12h-122q-27 0 -39 8t-21 33l-10 43 q-31 -40 -82.5 -63.5t-78.5 -27t-48 -3.5q-24 0 -51 4t-69 20.5t-73.5 43.5t-55 80t-23.5 124zM197 1272q0 21 11.5 34t31.5 13h198q8 0 13.5 -1.5t9.5 -6t6 -7.5t6 -10.5t6 -11.5l109 -260q0 -21 -11.5 -34t-31.5 -13h-117q-30 0 -51 33zM336 272q0 -53 90 -53q44 0 76 27 v49q-29 29 -76 29q-90 0 -90 -52z" />
            <glyph unicode="&#xe1;" horiz-adv-x="911" d="M72 262q0 115 72.5 170t195.5 55q108 0 162 -30q-13 61 -42 81.5t-89 20.5q-82 0 -127 -12q-12 -2 -25 -2q-39 0 -53 28l-45 127q-4 16 -4 31q0 31 24 47q85 33 140.5 42t124.5 9q194 0 288 -98t94 -276v-412q0 -19 -12 -31t-31 -12h-122q-27 0 -39 8t-21 33l-10 43 q-31 -40 -82.5 -63.5t-78.5 -27t-48 -3.5q-24 0 -51 4t-69 20.5t-73.5 43.5t-55 80t-23.5 124zM324 1022l108 260q2 4 6 11.5t6 10.5t6 7.5t9.5 6t13.5 1.5h199q20 0 31.5 -13t11.5 -34l-180 -264q-21 -33 -52 -33h-116q-20 0 -31.5 13t-11.5 34zM336 272q0 -53 90 -53 q44 0 76 27v49q-29 29 -76 29q-90 0 -90 -52z" />
            <glyph unicode="&#xe2;" horiz-adv-x="911" d="M72 262q0 115 72.5 170t195.5 55q108 0 162 -30q-13 61 -42 81.5t-89 20.5q-82 0 -127 -12q-12 -2 -25 -2q-39 0 -53 28l-45 127q-4 16 -4 31q0 31 24 47q85 33 140.5 42t124.5 9q194 0 288 -98t94 -276v-412q0 -19 -12 -31t-31 -12h-122q-27 0 -39 8t-21 33l-10 43 q-31 -40 -82.5 -63.5t-78.5 -27t-48 -3.5q-24 0 -51 4t-69 20.5t-73.5 43.5t-55 80t-23.5 124zM178 1124q0 15 15 33l200 141l11 6q11 7 20.5 11t17.5 4h41q8 0 17.5 -4t20.5 -11l11 -6l201 -141q15 -18 15 -33q0 -4 -11 -26l-94 -111q-7 -12 -25 -12q-9 0 -28 8l-127 94 l-127 -94q-19 -8 -29 -8q-17 0 -24 12l-95 111q-10 20 -10 26zM336 272q0 -53 90 -53q44 0 76 27v49q-29 29 -76 29q-90 0 -90 -52z" />
            <glyph unicode="&#xe3;" horiz-adv-x="911" d="M72 262q0 115 72.5 170t195.5 55q108 0 162 -30q-13 61 -42 81.5t-89 20.5q-82 0 -127 -12q-12 -2 -25 -2q-39 0 -53 28l-45 127q-4 16 -4 31q0 31 24 47q85 33 140.5 42t124.5 9q194 0 288 -98t94 -276v-412q0 -19 -12 -31t-31 -12h-122q-27 0 -39 8t-21 33l-10 43 q-31 -40 -82.5 -63.5t-78.5 -27t-48 -3.5q-24 0 -51 4t-69 20.5t-73.5 43.5t-55 80t-23.5 124zM135 1180q0 21 19 34q95 74 178 74q49 0 119.5 -33.5t101.5 -33.5q55 0 98 32q14 7 21 7q18 0 39 -21l53 -139q0 -34 -21 -45q-94 -80 -192 -80q-40 0 -109.5 33.5t-109.5 33.5 q-51 0 -84 -28q-12 -4 -23 -4q-27 0 -37 20l-49 127q-4 16 -4 23zM336 272q0 -53 90 -53q44 0 76 27v49q-29 29 -76 29q-90 0 -90 -52z" />
            <glyph unicode="&#xe4;" horiz-adv-x="911" d="M72 262q0 115 72.5 170t195.5 55q108 0 162 -30q-13 61 -42 81.5t-89 20.5q-82 0 -127 -12q-12 -2 -25 -2q-39 0 -53 28l-45 127q-4 16 -4 31q0 31 24 47q85 33 140.5 42t124.5 9q194 0 288 -98t94 -276v-412q0 -19 -12 -31t-31 -12h-122q-27 0 -39 8t-21 33l-10 43 q-31 -40 -82.5 -63.5t-78.5 -27t-48 -3.5q-24 0 -51 4t-69 20.5t-73.5 43.5t-55 80t-23.5 124zM100 1128q0 63 45.5 108.5t108.5 45.5t108.5 -45.5t45.5 -108.5t-45.5 -108t-108.5 -45t-108.5 45t-45.5 108zM336 272q0 -53 90 -53q44 0 76 27v49q-29 29 -76 29 q-90 0 -90 -52zM475 1128q0 63 45.5 108.5t108.5 45.5t108 -45.5t45 -108.5t-45 -108t-108 -45t-108.5 45t-45.5 108z" />
            <glyph unicode="&#xe5;" horiz-adv-x="911" d="M72 262q0 115 72.5 170t195.5 55q108 0 162 -30q-13 61 -42 81.5t-89 20.5q-82 0 -127 -12q-12 -2 -25 -2q-39 0 -53 28l-45 127q-4 16 -4 31q0 31 24 47q85 33 140.5 42t124.5 9q194 0 288 -98t94 -276v-412q0 -19 -12 -31t-31 -12h-122q-27 0 -39 8t-21 33l-10 43 q-31 -40 -82.5 -63.5t-78.5 -27t-48 -3.5q-24 0 -51 4t-69 20.5t-73.5 43.5t-55 80t-23.5 124zM190 1237q0 109 79.5 186.5t187.5 77.5q105 0 182.5 -77.5t77.5 -186.5q0 -104 -78 -183t-182 -79q-107 0 -187 79t-80 183zM336 272q0 -53 90 -53q44 0 76 27v49q-29 29 -76 29 q-90 0 -90 -52zM389 1233q0 -31 19.5 -52.5t48.5 -21.5q24 0 42.5 22t18.5 52q0 31 -18.5 52.5t-42.5 21.5q-30 0 -49 -20.5t-19 -53.5z" />
            <glyph unicode="&#xe6;" horiz-adv-x="1355" d="M72 262q0 115 72.5 170t195.5 55q103 0 158 -28q0 1 1 3.5t1 4.5q-14 54 -43.5 73t-85.5 19q-82 0 -127 -12q-12 -2 -25 -2q-39 0 -53 28l-45 127q-4 16 -4 31q0 31 24 47q85 33 140.5 42t124.5 9q85 0 144.5 -20.5t104.5 -71.5q80 92 242 92q176 0 286.5 -101.5 t110.5 -291.5v-67q0 -19 -12 -31t-31 -12h-460q16 -101 161 -101q119 0 195 35q4 2 10 2q16 0 27 -14l55 -92q10 -13 10 -29q0 -22 -10 -35q-38 -53 -117.5 -77.5t-169.5 -24.5q-214 0 -334 112q-32 -39 -78 -64.5t-91.5 -34.5t-66.5 -11t-38 -2q-24 0 -51 4t-69 20.5 t-73.5 43.5t-55 80t-23.5 124zM336 272q0 -53 90 -53q44 0 76 27v49q-29 29 -76 29q-90 0 -90 -52zM788 483h220q-13 92 -107 92q-98 0 -113 -92z" />
            <glyph unicode="&#xe7;" horiz-adv-x="856" d="M61 414q0 171 126.5 293t301.5 122q82 0 161.5 -27.5t135.5 -80.5q13 -20 13 -41q0 -24 -19 -43l-84 -107q-17 -14 -37 -14h-12l-26 10q-68 33 -134 33q-59 0 -99 -40t-40 -107q0 -70 45 -121t111 -51q64 0 114 34q30 19 50 19q23 0 37 -17l79 -83q21 -26 21 -46 q0 -25 -12 -43q-88 -96 -226 -110q-2 -18 -2 -35l17 -10q31 -20 43.5 -29.5t29.5 -26t23 -34.5t6 -43q0 -76 -54.5 -109t-135.5 -33q-62 0 -106.5 15t-94.5 55q-10 10 -10 20q0 9 6 21l37 63q11 11 28 11q3 -1 21.5 -11t44.5 -19t51 -9q37 0 37 14q0 17 -129 74l10 94 q-141 34 -234.5 150.5t-93.5 261.5z" />
            <glyph unicode="&#xe8;" horiz-adv-x="919" d="M61 418q0 182 100 296.5t300 114.5q176 0 286.5 -101.5t110.5 -291.5v-67q0 -19 -12 -31t-31 -12h-461q16 -101 162 -101q119 0 195 35q4 2 10 2q16 0 27 -14l55 -92q10 -13 10 -29q0 -22 -10 -35q-38 -53 -117.5 -77.5t-169.5 -24.5q-71 0 -135.5 14t-123.5 46.5 t-102 81t-68.5 122t-25.5 164.5zM197 1272q0 21 11.5 34t31.5 13h198q8 0 13.5 -1.5t9.5 -6t6 -7.5t6 -10.5t6 -11.5l109 -260q0 -21 -11.5 -34t-31.5 -13h-117q-30 0 -51 33zM352 483h219q-13 92 -106 92q-98 0 -113 -92z" />
            <glyph unicode="&#xe9;" horiz-adv-x="919" d="M61 418q0 182 100 296.5t300 114.5q176 0 286.5 -101.5t110.5 -291.5v-67q0 -19 -12 -31t-31 -12h-461q16 -101 162 -101q119 0 195 35q4 2 10 2q16 0 27 -14l55 -92q10 -13 10 -29q0 -22 -10 -35q-38 -53 -117.5 -77.5t-169.5 -24.5q-71 0 -135.5 14t-123.5 46.5 t-102 81t-68.5 122t-25.5 164.5zM352 483h219q-13 92 -106 92q-98 0 -113 -92zM381 1022l108 260q2 4 6 11.5t6 10.5t6 7.5t9.5 6t13.5 1.5h199q20 0 31.5 -13t11.5 -34l-180 -264q-21 -33 -51 -33h-117q-20 0 -31.5 13t-11.5 34z" />
            <glyph unicode="&#xea;" horiz-adv-x="919" d="M61 418q0 182 100 296.5t300 114.5q176 0 286.5 -101.5t110.5 -291.5v-67q0 -19 -12 -31t-31 -12h-461q16 -101 162 -101q119 0 195 35q4 2 10 2q16 0 27 -14l55 -92q10 -13 10 -29q0 -22 -10 -35q-38 -53 -117.5 -77.5t-169.5 -24.5q-71 0 -135.5 14t-123.5 46.5 t-102 81t-68.5 122t-25.5 164.5zM182 1124q0 15 15 33l200 141l11 6q11 7 20.5 11t17.5 4h41q6 0 14.5 -3t14.5 -6t12.5 -7t8.5 -5l200 -141q15 -18 15 -33q0 -4 -11 -26l-94 -111q-7 -12 -24 -12q-10 0 -29 8l-127 94l-127 -94q-19 -8 -29 -8q-17 0 -24 12l-94 111 q-11 22 -11 26zM352 483h219q-13 92 -106 92q-98 0 -113 -92z" />
            <glyph unicode="&#xeb;" horiz-adv-x="919" d="M61 418q0 182 100 296.5t300 114.5q176 0 286.5 -101.5t110.5 -291.5v-67q0 -19 -12 -31t-31 -12h-461q16 -101 162 -101q119 0 195 35q4 2 10 2q16 0 27 -14l55 -92q10 -13 10 -29q0 -22 -10 -35q-38 -53 -117.5 -77.5t-169.5 -24.5q-71 0 -135.5 14t-123.5 46.5 t-102 81t-68.5 122t-25.5 164.5zM127 1128q0 63 45.5 108.5t108.5 45.5t108 -45.5t45 -108.5t-45 -108t-108 -45t-108.5 45t-45.5 108zM352 483h219q-13 92 -106 92q-98 0 -113 -92zM502 1128q0 63 45 108.5t108 45.5t108.5 -45.5t45.5 -108.5t-45.5 -108t-108.5 -45 t-108 45t-45 108z" />
            <glyph unicode="&#xec;" d="M-20 1272q0 21 11.5 34t31.5 13h198q8 0 13.5 -1.5t9.5 -6t6 -7.5t6 -10.5t6 -11.5l109 -260q0 -21 -11.5 -34t-31.5 -13h-117q-30 0 -51 33zM133 43v733q0 19 11.5 31t31.5 12h201q19 0 31 -12t12 -31v-733q0 -19 -12 -31t-31 -12h-201q-20 0 -31.5 12t-11.5 31z" />
            <glyph unicode="&#xed;" d="M133 43v733q0 19 12 31t31 12h201q20 0 31.5 -12t11.5 -31v-733q0 -19 -11.5 -31t-31.5 -12h-201q-19 0 -31 12t-12 31zM182 1022l109 260q2 4 6 11.5t6 10.5t6 7.5t9.5 6t13.5 1.5h198q20 0 31.5 -13t11.5 -34l-180 -264q-21 -33 -51 -33h-117q-20 0 -31.5 13t-11.5 34z " />
            <glyph unicode="&#xee;" d="M-8 1124q0 16 14 33l201 141l11 6q11 7 20.5 11t17.5 4h41q8 0 17.5 -4t20.5 -11l11 -6l201 -141q14 -17 14 -33q0 -6 -10 -26l-94 -111q-7 -12 -25 -12q-10 0 -29 8l-127 94l-126 -94q-19 -8 -29 -8q-18 0 -25 12l-94 111q-10 20 -10 26zM133 43v733q0 19 12 31t31 12 h201q20 0 31.5 -12t11.5 -31v-733q0 -19 -11.5 -31t-31.5 -12h-201q-19 0 -31 12t-12 31z" />
            <glyph unicode="&#xef;" d="M-66 1128q0 63 45.5 108.5t108.5 45.5t108.5 -45.5t45.5 -108.5t-45.5 -108t-108.5 -45t-108.5 45t-45.5 108zM133 43v733q0 19 12 31t31 12h201q20 0 31.5 -12t11.5 -31v-733q0 -19 -11.5 -31t-31.5 -12h-201q-19 0 -31 12t-12 31zM307 1128q0 63 45.5 108.5t108.5 45.5 t108 -45.5t45 -108.5t-45 -108t-108 -45t-108.5 45t-45.5 108z" />
            <glyph unicode="&#xf0;" horiz-adv-x="1030" d="M61 418q0 107 59.5 195t153.5 139t205 63l-39 70h-174q-19 0 -31 12t-12 31v84q0 19 12 31t31 12h82l-31 59q0 22 11.5 35.5t31.5 13.5h211q45 0 66 -41l37 -67h182q20 0 31.5 -12t11.5 -31v-84q0 -19 -11.5 -31t-31.5 -12h-90l158 -285q19 -32 32 -85.5t13 -96.5 q0 -103 -37.5 -186.5t-101 -135t-143.5 -79t-169 -27.5q-90 0 -171 27.5t-145.5 79t-102.5 135t-38 186.5zM348 408q0 -78 48.5 -122t119.5 -44t118.5 44t47.5 122q0 64 -51 103.5t-115 39.5q-65 0 -116.5 -39.5t-51.5 -103.5z" />
            <glyph unicode="&#xf1;" horiz-adv-x="1017" d="M133 43v733q0 19 12 31t31 12h105q26 0 38 -8t21 -33l10 -43q36 52 100 73t130 21q85 0 149.5 -30t102 -82.5t55.5 -117t18 -140.5v-416q0 -19 -11.5 -31t-31.5 -12h-200q-19 0 -31.5 12t-12.5 31v387q0 32 -2.5 51t-12.5 39t-32 29.5t-57 9.5q-48 0 -71 -36t-23 -93 v-387q0 -19 -11.5 -31t-31.5 -12h-201q-19 0 -31 12t-12 31zM195 1180q0 22 18 34q95 74 178 74q49 0 119.5 -33.5t101.5 -33.5q56 0 99 32q14 7 20 7q18 0 39 -21l53 -139q0 -35 -20 -45q-94 -80 -193 -80q-40 0 -109.5 33.5t-109.5 33.5q-51 0 -84 -28q-12 -4 -22 -4 q-27 0 -37 20l-49 127q-4 16 -4 23z" />
            <glyph unicode="&#xf2;" horiz-adv-x="976" d="M61 401q0 112 58.5 211t157 158t210.5 59q113 0 212 -59t157.5 -157.5t58.5 -211.5q0 -169 -127 -290t-301 -121q-173 0 -299.5 121t-126.5 290zM197 1272q0 21 11.5 34t31.5 13h198q8 0 13.5 -1.5t9.5 -6t6 -7.5t6 -10.5t6 -11.5l109 -260q0 -21 -11.5 -34t-31.5 -13 h-117q-30 0 -51 33zM348 399q0 -66 40 -112.5t97 -46.5q60 0 102 46.5t42 112.5q0 68 -42 114t-102 46q-57 0 -97 -46t-40 -114z" />
            <glyph unicode="&#xf3;" horiz-adv-x="976" d="M61 401q0 112 58.5 211t157 158t210.5 59q113 0 212 -59t157.5 -157.5t58.5 -211.5q0 -169 -127 -290t-301 -121q-173 0 -299.5 121t-126.5 290zM348 399q0 -66 40 -112.5t97 -46.5q60 0 102 46.5t42 112.5q0 68 -42 114t-102 46q-57 0 -97 -46t-40 -114zM383 1022 l109 260q2 4 7 13.5t7.5 13t9 7t16.5 3.5h199q20 0 31.5 -13t11.5 -34l-180 -264q-21 -33 -51 -33h-117q-20 0 -31.5 13t-11.5 34z" />
            <glyph unicode="&#xf4;" horiz-adv-x="976" d="M61 401q0 112 58.5 211t157 158t210.5 59q113 0 212 -59t157.5 -157.5t58.5 -211.5q0 -169 -127 -290t-301 -121q-173 0 -299.5 121t-126.5 290zM203 1124q0 16 14 33l201 141l11 6q11 7 20.5 11t17.5 4h41q8 0 17.5 -4t20.5 -11l11 -6l201 -141q14 -17 14 -33 q0 -6 -10 -26l-94 -111q-7 -12 -25 -12q-10 0 -29 8l-127 94l-127 -94q-19 -8 -28 -8q-18 0 -25 12l-94 111q-10 20 -10 26zM348 399q0 -66 40 -112.5t97 -46.5q60 0 102 46.5t42 112.5q0 68 -42 114t-102 46q-57 0 -97 -46t-40 -114z" />
            <glyph unicode="&#xf5;" horiz-adv-x="976" d="M61 401q0 112 58.5 211t157 158t210.5 59q113 0 212 -59t157.5 -157.5t58.5 -211.5q0 -169 -127 -290t-301 -121q-173 0 -299.5 121t-126.5 290zM178 1180q0 21 19 34q95 74 178 74q49 0 119.5 -33.5t101.5 -33.5q55 0 98 32q14 7 21 7q18 0 39 -21l53 -139 q0 -34 -21 -45q-94 -80 -192 -80q-40 0 -109.5 33.5t-109.5 33.5q-51 0 -84 -28q-12 -4 -23 -4q-27 0 -37 20l-49 127q-4 16 -4 23zM348 399q0 -66 40 -112.5t97 -46.5q60 0 102 46.5t42 112.5q0 68 -42 114t-102 46q-57 0 -97 -46t-40 -114z" />
            <glyph unicode="&#xf6;" horiz-adv-x="976" d="M61 401q0 112 58.5 211t157 158t210.5 59q113 0 212 -59t157.5 -157.5t58.5 -211.5q0 -169 -127 -290t-301 -121q-173 0 -299.5 121t-126.5 290zM147 1128q0 63 45.5 108.5t108.5 45.5t108.5 -45.5t45.5 -108.5t-45.5 -108t-108.5 -45t-108.5 45t-45.5 108zM348 399 q0 -66 40 -112.5t97 -46.5q60 0 102 46.5t42 112.5q0 68 -42 114t-102 46q-57 0 -97 -46t-40 -114zM522 1128q0 63 45.5 108.5t108.5 45.5t108 -45.5t45 -108.5t-45 -108t-108 -45t-108.5 45t-45.5 108z" />
            <glyph unicode="&#xf7;" horiz-adv-x="972" d="M133 381q0 -19 12 -31t31 -12h621q20 0 31.5 12t11.5 31v158q0 19 -11.5 31t-31.5 12h-621q-19 0 -31 -12t-12 -31v-158zM348 125q0 59 39.5 99t97.5 40q59 0 99.5 -40.5t40.5 -98.5t-40.5 -97.5t-99.5 -39.5t-98 39t-39 98zM348 795q0 59 39.5 99t97.5 40 q59 0 99.5 -40.5t40.5 -98.5t-40.5 -98t-99.5 -40q-58 0 -97.5 39.5t-39.5 98.5z" />
            <glyph unicode="&#xf8;" horiz-adv-x="976" d="M61 401q0 112 58.5 211t157 158t210.5 59q36 0 66 -6l31 78q16 33 47 33h106q19 0 31 -12t12 -31l-53 -139q86 -59 137 -153t51 -198q0 -169 -127 -290t-301 -121q-19 0 -47 4l-32 -88q-16 -33 -48 -33h-106q-20 0 -31.5 13t-11.5 32l51 135q-92 55 -146.5 147t-54.5 201 zM348 399q0 -36 17 -75l88 231q-45 -12 -75 -55.5t-30 -100.5zM537 250q42 17 67 57.5t25 91.5q0 33 -13 62z" />
            <glyph unicode="&#xf9;" horiz-adv-x="1017" d="M113 360v416q0 19 11.5 31t31.5 12h200q19 0 31 -12t12 -31v-407q0 -31 3 -50.5t12.5 -39.5t32 -29.5t57.5 -9.5q48 0 71 36t23 93v407q0 19 11.5 31t31.5 12h201q19 0 31 -12t12 -31v-733q0 -19 -12 -31t-31 -12h-105q-26 0 -38 8t-21 33l-10 43q-64 -94 -215 -94 q-86 0 -152.5 30t-106.5 82t-60.5 117.5t-20.5 140.5zM207 1272q0 21 11.5 34t31.5 13h199q10 0 16.5 -3.5t9 -7t7.5 -13t7 -13.5l109 -260q0 -21 -11.5 -34t-31.5 -13h-117q-30 0 -51 33z" />
            <glyph unicode="&#xfa;" horiz-adv-x="1017" d="M113 360v416q0 19 11.5 31t31.5 12h200q19 0 31 -12t12 -31v-407q0 -31 3 -50.5t12.5 -39.5t32 -29.5t57.5 -9.5q48 0 71 36t23 93v407q0 19 11.5 31t31.5 12h201q19 0 31 -12t12 -31v-733q0 -19 -12 -31t-31 -12h-105q-26 0 -38 8t-21 33l-10 43q-64 -94 -215 -94 q-86 0 -152.5 30t-106.5 82t-60.5 117.5t-20.5 140.5zM397 1022l109 260q2 4 6 11.5t6 10.5t6 7.5t9.5 6t13.5 1.5h198q20 0 31.5 -13t11.5 -34l-180 -264q-21 -33 -51 -33h-117q-20 0 -31.5 13t-11.5 34z" />
            <glyph unicode="&#xfb;" horiz-adv-x="1017" d="M113 360v416q0 19 11.5 31t31.5 12h200q19 0 31 -12t12 -31v-407q0 -31 3 -50.5t12.5 -39.5t32 -29.5t57.5 -9.5q48 0 71 36t23 93v407q0 19 11.5 31t31.5 12h201q19 0 31 -12t12 -31v-733q0 -19 -12 -31t-31 -12h-105q-26 0 -38 8t-21 33l-10 43q-64 -94 -215 -94 q-86 0 -152.5 30t-106.5 82t-60.5 117.5t-20.5 140.5zM219 1124q0 16 14 33l201 141l11 6q11 7 20.5 11t17.5 4h41q8 0 17.5 -4t20.5 -11l11 -6l201 -141q14 -17 14 -33q0 -6 -10 -26l-94 -111q-7 -12 -25 -12q-9 0 -28 8l-127 94l-127 -94q-19 -8 -29 -8q-17 0 -24 12 l-95 111q-10 20 -10 26z" />
            <glyph unicode="&#xfc;" horiz-adv-x="1017" d="M113 360v416q0 19 11.5 31t31.5 12h200q19 0 31 -12t12 -31v-407q0 -31 3 -50.5t12.5 -39.5t32 -29.5t57.5 -9.5q48 0 71 36t23 93v407q0 19 11.5 31t31.5 12h201q19 0 31 -12t12 -31v-733q0 -19 -12 -31t-31 -12h-105q-26 0 -38 8t-21 33l-10 43q-64 -94 -215 -94 q-86 0 -152.5 30t-106.5 82t-60.5 117.5t-20.5 140.5zM164 1128q0 63 45 108.5t108 45.5t108.5 -45.5t45.5 -108.5t-45.5 -108t-108.5 -45t-108 45t-45 108zM539 1128q0 63 45 108.5t108 45.5t108.5 -45.5t45.5 -108.5t-45.5 -108t-108.5 -45t-108 45t-45 108z" />
            <glyph unicode="&#xfd;" horiz-adv-x="907" d="M51 766l258 -545l-243 -518q0 -24 13.5 -38.5t35.5 -14.5h194q48 0 66 45l512 1071q0 24 -13.5 38.5t-35.5 14.5h-193q-45 0 -63 -45l-113 -235l-115 235q-18 45 -63 45h-191q-22 0 -35.5 -14.5t-13.5 -38.5zM381 1022l108 260q2 4 6 11.5t6 10.5t6 7.5t9.5 6t13.5 1.5 h199q20 0 31.5 -13t11.5 -34l-180 -264q-21 -33 -51 -33h-117q-20 0 -31.5 13t-11.5 34z" />
            <glyph unicode="&#xfe;" horiz-adv-x="1034" d="M133 -307v1427q0 19 11.5 31t31.5 12h201q19 0 31 -12t12 -31v-319q69 28 162 28q167 0 279 -121t112 -294t-109.5 -298.5t-269.5 -125.5q-111 0 -174 35v-332q0 -19 -11.5 -31t-31.5 -12h-201q-19 0 -31 12t-12 31zM420 395q4 -73 42 -114t93 -41q57 0 94 46t37 126 q0 66 -37 106.5t-94 40.5q-56 0 -95.5 -40.5t-39.5 -106.5v-17z" />
            <glyph unicode="&#xff;" horiz-adv-x="907" d="M51 766l258 -545l-243 -518q0 -24 13.5 -38.5t35.5 -14.5h194q48 0 66 45l512 1071q0 24 -13.5 38.5t-35.5 14.5h-193q-45 0 -63 -45l-113 -235l-115 235q-18 45 -63 45h-191q-22 0 -35.5 -14.5t-13.5 -38.5zM129 1128q0 63 45.5 108.5t108.5 45.5t108 -45.5t45 -108.5 t-45 -108t-108 -45t-108.5 45t-45.5 108zM504 1128q0 63 45 108.5t108 45.5t108.5 -45.5t45.5 -108.5t-45.5 -108t-108.5 -45t-108 45t-45 108z" />
            <glyph unicode="&#x152;" horiz-adv-x="1722" d="M82 584q0 121 46.5 231t125.5 189.5t189.5 126.5t232.5 47q53 0 137 -15h764q19 0 31 -12t12 -31v-190q0 -20 -12 -31.5t-31 -11.5h-500v-176h393q19 0 31 -12t12 -31v-185q0 -20 -12 -31.5t-31 -11.5h-393v-170h500q19 0 31 -12t12 -31v-184q0 -20 -12 -31.5t-31 -11.5 h-764q-78 -10 -147 -10q-162 0 -296.5 79.5t-211 216t-76.5 298.5zM369 578q0 -134 91.5 -236t215.5 -102q82 0 115 6v647q-55 14 -117 14q-130 0 -217.5 -96.5t-87.5 -232.5z" />
            <glyph unicode="&#x153;" horiz-adv-x="1488" d="M61 401q0 112 58.5 211t157 158t210.5 59q144 0 263 -94q109 94 280 94q176 0 286.5 -101.5t110.5 -291.5v-67q0 -19 -12 -31t-31 -12h-460q16 -101 161 -101q119 0 195 35q4 2 10 2q16 0 27 -14l55 -92q10 -13 10 -29q0 -22 -10 -35q-38 -53 -117.5 -77.5t-169.5 -24.5 q-200 0 -319 100q-125 -100 -279 -100q-173 0 -299.5 121t-126.5 290zM348 399q0 -66 40 -112.5t97 -46.5q60 0 102 46.5t42 112.5q0 68 -42 114t-102 46q-57 0 -97 -46t-40 -114zM922 483h219q-13 92 -107 92q-97 0 -112 -92z" />
            <glyph unicode="&#x178;" horiz-adv-x="1163" d="M31 1110l407 -676v-391q0 -19 11.5 -31t31.5 -12h201q19 0 31 12t12 31v391l408 676q0 24 -14 38.5t-36 14.5h-194q-52 0 -66 -45l-241 -395l-242 395q-14 45 -66 45h-194q-22 0 -35.5 -14.5t-13.5 -38.5zM213 1460q0 63 45.5 108.5t108.5 45.5t108 -45.5t45 -108.5 t-45 -108t-108 -45t-108.5 45t-45.5 108zM651 1460q0 63 45.5 108.5t108.5 45.5t108 -45.5t45 -108.5t-45 -108t-108 -45t-108.5 45t-45.5 108z" />
            <glyph unicode="&#x2c6;" horiz-adv-x="835" d="M133 969q0 15 14 32l201 142q1 1 8 5t13 7t14 5.5t14 2.5h41q6 0 14 -2.5t14 -5.5t13 -7t8 -5l201 -142q14 -17 14 -32q0 -7 -10 -27l-94 -111q-7 -12 -25 -12q-9 0 -28 8l-127 95l-127 -95q-19 -8 -29 -8q-17 0 -24 12l-95 111q-10 20 -10 27z" />
            <glyph unicode="&#x2dc;" horiz-adv-x="919" d="M133 1044q0 11 9.5 25t19.5 21q97 73 184 73q39 0 107.5 -33.5t107.5 -33.5q44 0 82 30q20 15 41 15q26 0 37 -21l61 -151q4 -16 4 -23q0 -11 -9 -24.5t-19 -20.5q-98 -80 -199 -80q-39 0 -106.5 35t-106.5 35q-31 0 -70 -27q-19 -14 -40 -14q-27 0 -37 20l-62 152 q-4 16 -4 22z" />
            <glyph unicode="&#x2000;" horiz-adv-x="916" />
            <glyph unicode="&#x2001;" horiz-adv-x="1833" />
            <glyph unicode="&#x2002;" horiz-adv-x="916" />
            <glyph unicode="&#x2003;" horiz-adv-x="1833" />
            <glyph unicode="&#x2004;" horiz-adv-x="611" />
            <glyph unicode="&#x2005;" horiz-adv-x="458" />
            <glyph unicode="&#x2006;" horiz-adv-x="305" />
            <glyph unicode="&#x2007;" horiz-adv-x="305" />
            <glyph unicode="&#x2008;" horiz-adv-x="229" />
            <glyph unicode="&#x2009;" horiz-adv-x="366" />
            <glyph unicode="&#x200a;" horiz-adv-x="101" />
            <glyph unicode="&#x2010;" horiz-adv-x="942" d="M133 330v157q0 19 12 31t31 12h590q20 0 31.5 -12t11.5 -31v-157q0 -19 -11.5 -31t-31.5 -12h-590q-19 0 -31 12t-12 31z" />
            <glyph unicode="&#x2011;" horiz-adv-x="942" d="M133 330v157q0 19 12 31t31 12h590q20 0 31.5 -12t11.5 -31v-157q0 -19 -11.5 -31t-31.5 -12h-590q-19 0 -31 12t-12 31z" />
            <glyph unicode="&#x2012;" horiz-adv-x="942" d="M133 330v157q0 19 12 31t31 12h590q20 0 31.5 -12t11.5 -31v-157q0 -19 -11.5 -31t-31.5 -12h-590q-19 0 -31 12t-12 31z" />
            <glyph unicode="&#x2013;" horiz-adv-x="942" d="M133 330v157q0 19 12 31t31 12h590q20 0 31.5 -12t11.5 -31v-157q0 -19 -11.5 -31t-31.5 -12h-590q-19 0 -31 12t-12 31z" />
            <glyph unicode="&#x2014;" horiz-adv-x="1054" d="M133 330v157q0 19 12.5 31t32.5 12h701q19 0 31 -12t12 -31v-157q0 -19 -12 -31t-31 -12h-701q-20 0 -32.5 12t-12.5 31z" />
            <glyph unicode="&#x2018;" horiz-adv-x="577" d="M133 879q0 29 17 67l96 191q15 26 43 26h125q30 0 30 -41l-53 -133q49 -49 49 -110q0 -66 -44 -110t-111 -44q-62 0 -107 44.5t-45 109.5z" />
            <glyph unicode="&#x2019;" horiz-adv-x="577" d="M133 766l53 133q-49 49 -49 111q0 66 44.5 109.5t111.5 43.5q62 0 106.5 -44t44.5 -109q0 -32 -16 -68l-96 -190q-15 -27 -43 -27h-125q-31 0 -31 41z" />
            <glyph unicode="&#x201a;" horiz-adv-x="577" d="M133 -145l53 133q-49 49 -49 110q0 66 44.5 110t111.5 44q62 0 106.5 -44.5t44.5 -109.5q0 -31 -16 -67l-96 -191q-15 -26 -43 -26h-125q-31 0 -31 41z" />
            <glyph unicode="&#x201c;" horiz-adv-x="993" d="M133 879q0 29 17 67l96 191q15 26 43 26h125q30 0 30 -41l-53 -133q49 -49 49 -110q0 -66 -44 -110t-111 -44q-62 0 -107 44.5t-45 109.5zM549 879q0 31 16 67l97 191q15 26 43 26h124q31 0 31 -41l-53 -133q49 -49 49 -110q0 -66 -44.5 -110t-111.5 -44 q-62 0 -106.5 44.5t-44.5 109.5z" />
            <glyph unicode="&#x201d;" horiz-adv-x="993" d="M133 766l53 133q-49 49 -49 111q0 66 44.5 109.5t111.5 43.5q62 0 106.5 -44t44.5 -109q0 -32 -16 -68l-96 -190q-15 -27 -43 -27h-125q-31 0 -31 41zM549 766l53 133q-49 49 -49 111q0 66 44.5 109.5t111.5 43.5q62 0 106.5 -44t44.5 -109q0 -32 -16 -68l-96 -190 q-15 -27 -43 -27h-125q-31 0 -31 41z" />
            <glyph unicode="&#x201e;" horiz-adv-x="993" d="M133 -145l53 133q-49 49 -49 110q0 66 44.5 110t111.5 44q62 0 106.5 -44.5t44.5 -109.5q0 -31 -16 -67l-96 -191q-15 -26 -43 -26h-125q-31 0 -31 41zM549 -145l53 133q-49 49 -49 110q0 66 44.5 110t111.5 44q62 0 106.5 -44.5t44.5 -109.5q0 -31 -16 -67l-96 -191 q-15 -26 -43 -26h-125q-31 0 -31 41z" />
            <glyph unicode="&#x2022;" horiz-adv-x="573" d="M133 412q0 63 45.5 108t108.5 45t108 -45t45 -108t-45 -108.5t-108 -45.5t-108.5 45.5t-45.5 108.5z" />
            <glyph unicode="&#x2026;" horiz-adv-x="1697" d="M133 143q0 63 45.5 108.5t108.5 45.5t108 -45.5t45 -108.5t-45 -108t-108 -45t-108.5 45t-45.5 108zM694 143q0 63 45.5 108.5t108.5 45.5t108 -45.5t45 -108.5t-45 -108t-108 -45t-108.5 45t-45.5 108zM1257 143q0 63 45.5 108.5t108.5 45.5t108.5 -45.5t45.5 -108.5 t-45.5 -108t-108.5 -45t-108.5 45t-45.5 108z" />
            <glyph unicode="&#x202f;" horiz-adv-x="366" />
            <glyph unicode="&#x2039;" horiz-adv-x="913" d="M133 317v261q0 22 19 32l581 293q21 0 34 -11.5t13 -31.5v-203q0 -8 -1.5 -13.5t-6 -10t-7.5 -6.5t-11 -6.5t-11 -6.5l-335 -168l352 -176q1 -1 4.5 -3t5 -2.5t4 -3t3.5 -5.5t2 -7.5t1 -10.5v-205q0 -19 -13.5 -31t-33.5 -12l-581 293q-19 13 -19 34z" />
            <glyph unicode="&#x203a;" horiz-adv-x="913" d="M133 33v205q0 7 1 12t3.5 8.5t4.5 5t6.5 3.5t5.5 3l352 176l-336 168q-3 2 -11 6.5t-11 6.5t-7.5 6.5t-6 10t-1.5 13.5v203q0 20 13 31.5t34 11.5l582 -293q18 -9 18 -32v-261q0 -22 -18 -34l-582 -293q-20 0 -33.5 12t-13.5 31z" />
            <glyph unicode="&#x205f;" horiz-adv-x="458" />
            <glyph unicode="&#x20ac;" horiz-adv-x="1421" d="M133 379v104q0 19 12 31t31 12h76q-2 18 -2 58v16h-74q-19 0 -31 11.5t-12 31.5v105q0 19 12 31t31 12h111q62 171 214 279t343 108q124 0 237 -44t197 -126q10 -25 10 -33q0 -19 -12 -31l-125 -110q-13 -13 -29 -13q-18 0 -39 13q-84 73 -241 73q-145 0 -236 -116h174 q19 0 31 -12t12 -31v-105q0 -20 -12 -31.5t-31 -11.5h-243v-22q0 -20 4 -52h239q19 0 31 -12t12 -31v-104q0 -20 -12 -31.5t-31 -11.5h-147q89 -96 211 -96q93 0 139 12.5t125 71.5q16 16 37 16q16 0 29 -10l98 -109q14 -14 14 -31q0 -16 -12 -32q-77 -93 -185 -130.5 t-255 -37.5q-179 0 -321.5 95t-211.5 251h-125q-19 0 -31 11.5t-12 31.5z" />
            <glyph unicode="&#x2122;" horiz-adv-x="1495" d="M133 1008v125q0 14 9.5 22t21.5 8h467q31 0 31 -30v-125q0 -14 -8.5 -23.5t-22.5 -9.5h-125v-418q0 -14 -10 -23.5t-25 -9.5h-147q-33 0 -33 33v418h-127q-11 0 -21 10t-10 23zM715 557v588q8 13 13.5 17.5t16.5 4.5q20 0 31 -16l240 -233q11 -17 22 -17q12 0 23 17 l239 233q11 16 31 16q11 0 17 -4.5t14 -17.5v-588q0 -13 -10 -23t-23 -10h-149q-25 0 -33 29v199l-84 -86q-19 -15 -25 -15q-5 0 -24 15l-84 86v-199q-8 -29 -33 -29h-149q-14 0 -23.5 10t-9.5 23z" />
            <glyph unicode="&#x25fc;" horiz-adv-x="819" d="M0 0v819h819v-819h-819z" />
            </font>
</defs>
</svg>
